solid OpenSCAD_Model
  facet normal 0.707107 0.707107 0
    outer loop
      vertex 21 17 1
      vertex 17 21 -1
      vertex 17 21 1
    endloop
  endfacet
  facet normal 0.707107 0.707107 0
    outer loop
      vertex 17 21 -1
      vertex 21 17 1
      vertex 21 17 -1
    endloop
  endfacet
  facet normal 0.707107 -0.707107 0
    outer loop
      vertex 17 -21 1
      vertex 21 -17 -1
      vertex 21 -17 1
    endloop
  endfacet
  facet normal 0.707107 -0.707107 0
    outer loop
      vertex 21 -17 -1
      vertex 17 -21 1
      vertex 17 -21 -1
    endloop
  endfacet
  facet normal -0.707107 0.707107 0
    outer loop
      vertex -21 17 -1
      vertex -17 21 1
      vertex -17 21 -1
    endloop
  endfacet
  facet normal -0.707107 0.707107 0
    outer loop
      vertex -17 21 1
      vertex -21 17 -1
      vertex -21 17 1
    endloop
  endfacet
  facet normal -0.707107 -0.707107 0
    outer loop
      vertex -17 -21 -1
      vertex -21 -17 1
      vertex -21 -17 -1
    endloop
  endfacet
  facet normal -0.707107 -0.707107 0
    outer loop
      vertex -21 -17 1
      vertex -17 -21 -1
      vertex -17 -21 1
    endloop
  endfacet
  facet normal -1 0 0
    outer loop
      vertex -21 -17 -1
      vertex -21 17 1
      vertex -21 17 -1
    endloop
  endfacet
  facet normal -1 -0 0
    outer loop
      vertex -21 17 1
      vertex -21 -17 -1
      vertex -21 -17 1
    endloop
  endfacet
  facet normal 0 0 1
    outer loop
      vertex -15.9635 14.0734 1
      vertex -10.5058 4.67747 1
      vertex -15.5 14 1
    endloop
  endfacet
  facet normal 0 0 1
    outer loop
      vertex -11.5 0 1
      vertex -14.0734 -15.0365 1
      vertex -14 -15.5 1
    endloop
  endfacet
  facet normal 0 0 1
    outer loop
      vertex -10.5058 4.67747 1
      vertex -15.9635 14.0734 1
      vertex -10.9371 3.55369 1
    endloop
  endfacet
  facet normal 0 0 1
    outer loop
      vertex -11.5 0 1
      vertex -14.2865 -14.6183 1
      vertex -14.0734 -15.0365 1
    endloop
  endfacet
  facet normal 0 0 1
    outer loop
      vertex -10.9371 3.55369 1
      vertex -15.9635 14.0734 1
      vertex -11.2487 2.39098 1
    endloop
  endfacet
  facet normal 0 0 1
    outer loop
      vertex -11.5 0 1
      vertex -14.6183 -14.2865 1
      vertex -14.2865 -14.6183 1
    endloop
  endfacet
  facet normal 0 0 1
    outer loop
      vertex -16.3817 14.2865 1
      vertex -11.2487 2.39098 1
      vertex -15.9635 14.0734 1
    endloop
  endfacet
  facet normal 0 0 1
    outer loop
      vertex -11.5 0 1
      vertex -15.0365 -14.0734 1
      vertex -14.6183 -14.2865 1
    endloop
  endfacet
  facet normal 0 0 1
    outer loop
      vertex -11.2487 2.39098 1
      vertex -16.3817 14.2865 1
      vertex -11.437 1.20208 1
    endloop
  endfacet
  facet normal 0 0 1
    outer loop
      vertex -11.5 0 1
      vertex -15.5 -14 1
      vertex -15.0365 -14.0734 1
    endloop
  endfacet
  facet normal 0 0 1
    outer loop
      vertex -21 17 1
      vertex -11.437 1.20208 1
      vertex -16.3817 14.2865 1
    endloop
  endfacet
  facet normal 0 0 1
    outer loop
      vertex -11.5 0 1
      vertex -15.9635 -14.0734 1
      vertex -15.5 -14 1
    endloop
  endfacet
  facet normal 0 0 1
    outer loop
      vertex -11.437 1.20208 1
      vertex -21 17 1
      vertex -11.5 0 1
    endloop
  endfacet
  facet normal 0 0 1
    outer loop
      vertex -11.5 0 1
      vertex -16.3817 -14.2865 1
      vertex -15.9635 -14.0734 1
    endloop
  endfacet
  facet normal 0 0 1
    outer loop
      vertex -21 17 1
      vertex -16.3817 14.2865 1
      vertex -16.7135 14.6183 1
    endloop
  endfacet
  facet normal 0 0 1
    outer loop
      vertex -21 -17 1
      vertex -11.5 0 1
      vertex -21 17 1
    endloop
  endfacet
  facet normal 0 0 1
    outer loop
      vertex -21 17 1
      vertex -16.7135 14.6183 1
      vertex -16.9266 15.0365 1
    endloop
  endfacet
  facet normal 0 0 1
    outer loop
      vertex -11.5 0 1
      vertex -21 -17 1
      vertex -16.3817 -14.2865 1
    endloop
  endfacet
  facet normal 0 0 1
    outer loop
      vertex -21 17 1
      vertex -16.9266 15.0365 1
      vertex -17 15.5 1
    endloop
  endfacet
  facet normal 0 0 1
    outer loop
      vertex -16.3817 -14.2865 1
      vertex -21 -17 1
      vertex -16.7135 -14.6183 1
    endloop
  endfacet
  facet normal 0 0 1
    outer loop
      vertex 16.3817 14.2865 1
      vertex 21 17 1
      vertex 16.7135 14.6183 1
    endloop
  endfacet
  facet normal 0 0 1
    outer loop
      vertex 21 -17 1
      vertex 16.9266 -15.0365 1
      vertex 17 -15.5 1
    endloop
  endfacet
  facet normal 0 0 1
    outer loop
      vertex 21 17 1
      vertex 11.5 0 1
      vertex 21 -17 1
    endloop
  endfacet
  facet normal 0 0 1
    outer loop
      vertex 21 -17 1
      vertex 16.7135 -14.6183 1
      vertex 16.9266 -15.0365 1
    endloop
  endfacet
  facet normal 0 0 1
    outer loop
      vertex 21 17 1
      vertex 16.3817 14.2865 1
      vertex 11.437 1.20208 1
    endloop
  endfacet
  facet normal -0 0 1
    outer loop
      vertex 11.437 -1.20208 1
      vertex 21 -17 1
      vertex 11.5 0 1
    endloop
  endfacet
  facet normal 0 0 1
    outer loop
      vertex 11.2487 2.39098 1
      vertex 16.3817 14.2865 1
      vertex 15.9635 14.0734 1
    endloop
  endfacet
  facet normal -0 -0 1
    outer loop
      vertex 16.3817 -14.2865 1
      vertex 21 -17 1
      vertex 11.437 -1.20208 1
    endloop
  endfacet
  facet normal 0 0 1
    outer loop
      vertex 10.5058 4.67747 1
      vertex 15.9635 14.0734 1
      vertex 15.5 14 1
    endloop
  endfacet
  facet normal 0 0 1
    outer loop
      vertex 21 -17 1
      vertex 16.3817 -14.2865 1
      vertex 16.7135 -14.6183 1
    endloop
  endfacet
  facet normal 0 0 1
    outer loop
      vertex 9.95929 5.75 1
      vertex 15.5 14 1
      vertex 15.0365 14.0734 1
    endloop
  endfacet
  facet normal -0 0 1
    outer loop
      vertex 11.2487 -2.39098 1
      vertex 16.3817 -14.2865 1
      vertex 11.437 -1.20208 1
    endloop
  endfacet
  facet normal 0 0 1
    outer loop
      vertex 9.30369 6.75953 1
      vertex 15.0365 14.0734 1
      vertex 14.6183 14.2865 1
    endloop
  endfacet
  facet normal 0 0 1
    outer loop
      vertex 16.3817 -14.2865 1
      vertex 11.2487 -2.39098 1
      vertex 15.9635 -14.0734 1
    endloop
  endfacet
  facet normal 0 0 1
    outer loop
      vertex 8.54617 7.695 1
      vertex 14.6183 14.2865 1
      vertex 14.2865 14.6183 1
    endloop
  endfacet
  facet normal -0 0 1
    outer loop
      vertex 10.9371 -3.55369 1
      vertex 15.9635 -14.0734 1
      vertex 11.2487 -2.39098 1
    endloop
  endfacet
  facet normal 0 0 1
    outer loop
      vertex 6.75953 9.30369 1
      vertex 14.2865 14.6183 1
      vertex 14.0734 15.0365 1
    endloop
  endfacet
  facet normal -0 0 1
    outer loop
      vertex 10.5058 -4.67747 1
      vertex 15.9635 -14.0734 1
      vertex 10.9371 -3.55369 1
    endloop
  endfacet
  facet normal 0 0 1
    outer loop
      vertex 5.75 9.95929 1
      vertex 14.0734 15.0365 1
      vertex 14 15.5 1
    endloop
  endfacet
  facet normal 0 0 1
    outer loop
      vertex 15.9635 -14.0734 1
      vertex 10.5058 -4.67747 1
      vertex 15.5 -14 1
    endloop
  endfacet
  facet normal 0 0 1
    outer loop
      vertex 21 17 1
      vertex 16.9266 15.9635 1
      vertex 17 15.5 1
    endloop
  endfacet
  facet normal 0 0 1
    outer loop
      vertex 21 17 1
      vertex 16.7135 16.3817 1
      vertex 16.9266 15.9635 1
    endloop
  endfacet
  facet normal 0 0 1
    outer loop
      vertex 17 21 1
      vertex 16.3817 16.7135 1
      vertex 16.7135 16.3817 1
    endloop
  endfacet
  facet normal 0 0 1
    outer loop
      vertex 17 21 1
      vertex 15.9635 16.9266 1
      vertex 16.3817 16.7135 1
    endloop
  endfacet
  facet normal 0 0 1
    outer loop
      vertex 17 21 1
      vertex 15.5 17 1
      vertex 15.9635 16.9266 1
    endloop
  endfacet
  facet normal 0 0 1
    outer loop
      vertex 17 21 1
      vertex 15.0365 16.9266 1
      vertex 15.5 17 1
    endloop
  endfacet
  facet normal 0 0 1
    outer loop
      vertex 17 21 1
      vertex 14.6183 16.7135 1
      vertex 15.0365 16.9266 1
    endloop
  endfacet
  facet normal 0 0 1
    outer loop
      vertex 17 21 1
      vertex 14.2865 16.3817 1
      vertex 14.6183 16.7135 1
    endloop
  endfacet
  facet normal -0 0 1
    outer loop
      vertex 9.95929 -5.75 1
      vertex 15.5 -14 1
      vertex 10.5058 -4.67747 1
    endloop
  endfacet
  facet normal 0 0 1
    outer loop
      vertex 4.67747 10.5058 1
      vertex 14 15.5 1
      vertex 14.0734 15.9635 1
    endloop
  endfacet
  facet normal 0 0 1
    outer loop
      vertex 21 17 1
      vertex 11.437 1.20208 1
      vertex 11.5 0 1
    endloop
  endfacet
  facet normal 0 0 1
    outer loop
      vertex 16.3817 14.2865 1
      vertex 11.2487 2.39098 1
      vertex 11.437 1.20208 1
    endloop
  endfacet
  facet normal 0 0 1
    outer loop
      vertex 15.9635 14.0734 1
      vertex 10.9371 3.55369 1
      vertex 11.2487 2.39098 1
    endloop
  endfacet
  facet normal 0 0 1
    outer loop
      vertex 15.9635 14.0734 1
      vertex 10.5058 4.67747 1
      vertex 10.9371 3.55369 1
    endloop
  endfacet
  facet normal 0 0 1
    outer loop
      vertex 15.5 14 1
      vertex 9.95929 5.75 1
      vertex 10.5058 4.67747 1
    endloop
  endfacet
  facet normal 0 0 1
    outer loop
      vertex 15.0365 14.0734 1
      vertex 9.30369 6.75953 1
      vertex 9.95929 5.75 1
    endloop
  endfacet
  facet normal 0 0 1
    outer loop
      vertex 2.39098 11.2487 1
      vertex 14.0734 15.9635 1
      vertex 14.2865 16.3817 1
    endloop
  endfacet
  facet normal 0 0 1
    outer loop
      vertex 14.6183 14.2865 1
      vertex 8.54617 7.695 1
      vertex 9.30369 6.75953 1
    endloop
  endfacet
  facet normal 0 0 1
    outer loop
      vertex 1.20208 11.437 1
      vertex 14.2865 16.3817 1
      vertex 17 21 1
    endloop
  endfacet
  facet normal 0 0 1
    outer loop
      vertex 14.2865 14.6183 1
      vertex 7.695 8.54617 1
      vertex 8.54617 7.695 1
    endloop
  endfacet
  facet normal 0 0 1
    outer loop
      vertex 14.2865 14.6183 1
      vertex 6.75953 9.30369 1
      vertex 7.695 8.54617 1
    endloop
  endfacet
  facet normal 0 0 1
    outer loop
      vertex 14.0734 15.0365 1
      vertex 5.75 9.95929 1
      vertex 6.75953 9.30369 1
    endloop
  endfacet
  facet normal 0 0 1
    outer loop
      vertex 14 15.5 1
      vertex 4.67747 10.5058 1
      vertex 5.75 9.95929 1
    endloop
  endfacet
  facet normal 0 0 1
    outer loop
      vertex 14.0734 15.9635 1
      vertex 3.55369 10.9371 1
      vertex 4.67747 10.5058 1
    endloop
  endfacet
  facet normal 0 0 1
    outer loop
      vertex 14.0734 15.9635 1
      vertex 2.39098 11.2487 1
      vertex 3.55369 10.9371 1
    endloop
  endfacet
  facet normal 0 0 1
    outer loop
      vertex 14.2865 16.3817 1
      vertex 1.20208 11.437 1
      vertex 2.39098 11.2487 1
    endloop
  endfacet
  facet normal 0 0 1
    outer loop
      vertex 17 21 1
      vertex 0 11.5 1
      vertex 1.20208 11.437 1
    endloop
  endfacet
  facet normal -0 0 1
    outer loop
      vertex -17 21 1
      vertex 0 11.5 1
      vertex 17 21 1
    endloop
  endfacet
  facet normal 0 0 1
    outer loop
      vertex 0 11.5 1
      vertex -17 21 1
      vertex -1.20208 11.437 1
    endloop
  endfacet
  facet normal -0 -0 1
    outer loop
      vertex -14.2865 16.3817 1
      vertex -1.20208 11.437 1
      vertex -17 21 1
    endloop
  endfacet
  facet normal 0 0 1
    outer loop
      vertex -1.20208 11.437 1
      vertex -14.2865 16.3817 1
      vertex -2.39098 11.2487 1
    endloop
  endfacet
  facet normal -0 0 1
    outer loop
      vertex -15.5 14 1
      vertex -9.95929 5.75 1
      vertex -15.0365 14.0734 1
    endloop
  endfacet
  facet normal 0 0 1
    outer loop
      vertex -9.30369 6.75953 1
      vertex -15.0365 14.0734 1
      vertex -9.95929 5.75 1
    endloop
  endfacet
  facet normal -0 0 1
    outer loop
      vertex -15.0365 14.0734 1
      vertex -9.30369 6.75953 1
      vertex -14.6183 14.2865 1
    endloop
  endfacet
  facet normal 0 0 1
    outer loop
      vertex -8.54617 7.695 1
      vertex -14.6183 14.2865 1
      vertex -9.30369 6.75953 1
    endloop
  endfacet
  facet normal -0 0 1
    outer loop
      vertex -14.6183 14.2865 1
      vertex -8.54617 7.695 1
      vertex -14.2865 14.6183 1
    endloop
  endfacet
  facet normal 0 0 1
    outer loop
      vertex -7.695 8.54617 1
      vertex -14.2865 14.6183 1
      vertex -8.54617 7.695 1
    endloop
  endfacet
  facet normal 0 0 1
    outer loop
      vertex -6.75953 9.30369 1
      vertex -14.2865 14.6183 1
      vertex -7.695 8.54617 1
    endloop
  endfacet
  facet normal -0 0 1
    outer loop
      vertex -14.2865 14.6183 1
      vertex -6.75953 9.30369 1
      vertex -14.0734 15.0365 1
    endloop
  endfacet
  facet normal 0 0 1
    outer loop
      vertex -5.75 9.95929 1
      vertex -14.0734 15.0365 1
      vertex -6.75953 9.30369 1
    endloop
  endfacet
  facet normal -0 0 1
    outer loop
      vertex -14.0734 15.0365 1
      vertex -5.75 9.95929 1
      vertex -14 15.5 1
    endloop
  endfacet
  facet normal 0 0 1
    outer loop
      vertex -4.67747 10.5058 1
      vertex -14 15.5 1
      vertex -5.75 9.95929 1
    endloop
  endfacet
  facet normal -0 -0 1
    outer loop
      vertex -14.0734 15.9635 1
      vertex -2.39098 11.2487 1
      vertex -14.2865 16.3817 1
    endloop
  endfacet
  facet normal 0 0 1
    outer loop
      vertex -4.67747 10.5058 1
      vertex -14.0734 15.9635 1
      vertex -14 15.5 1
    endloop
  endfacet
  facet normal 0 0 1
    outer loop
      vertex -3.55369 10.9371 1
      vertex -14.0734 15.9635 1
      vertex -4.67747 10.5058 1
    endloop
  endfacet
  facet normal 0 0 1
    outer loop
      vertex -2.39098 11.2487 1
      vertex -14.0734 15.9635 1
      vertex -3.55369 10.9371 1
    endloop
  endfacet
  facet normal 0 0 1
    outer loop
      vertex -14.2865 16.3817 1
      vertex -17 21 1
      vertex -14.6183 16.7135 1
    endloop
  endfacet
  facet normal 0 0 1
    outer loop
      vertex -14.6183 16.7135 1
      vertex -17 21 1
      vertex -15.0365 16.9266 1
    endloop
  endfacet
  facet normal 0 0 1
    outer loop
      vertex -15.0365 16.9266 1
      vertex -17 21 1
      vertex -15.5 17 1
    endloop
  endfacet
  facet normal 0 0 1
    outer loop
      vertex -17 21 1
      vertex -15.9635 16.9266 1
      vertex -15.5 17 1
    endloop
  endfacet
  facet normal 0 0 1
    outer loop
      vertex -17 21 1
      vertex -16.3817 16.7135 1
      vertex -15.9635 16.9266 1
    endloop
  endfacet
  facet normal 0 0 1
    outer loop
      vertex -17 21 1
      vertex -16.7135 16.3817 1
      vertex -16.3817 16.7135 1
    endloop
  endfacet
  facet normal -0 0 1
    outer loop
      vertex -21 17 1
      vertex -16.7135 16.3817 1
      vertex -17 21 1
    endloop
  endfacet
  facet normal 0 0 1
    outer loop
      vertex -16.7135 16.3817 1
      vertex -21 17 1
      vertex -16.9266 15.9635 1
    endloop
  endfacet
  facet normal 0 0 1
    outer loop
      vertex -16.9266 15.9635 1
      vertex -21 17 1
      vertex -17 15.5 1
    endloop
  endfacet
  facet normal 0 0 1
    outer loop
      vertex -16.7135 -14.6183 1
      vertex -21 -17 1
      vertex -16.9266 -15.0365 1
    endloop
  endfacet
  facet normal 0 0 1
    outer loop
      vertex -16.9266 -15.0365 1
      vertex -21 -17 1
      vertex -17 -15.5 1
    endloop
  endfacet
  facet normal 0 0 1
    outer loop
      vertex -17 -15.5 1
      vertex -21 -17 1
      vertex -17 -21 1
    endloop
  endfacet
  facet normal 0 0 1
    outer loop
      vertex 16.7135 16.3817 1
      vertex 21 17 1
      vertex 17 21 1
    endloop
  endfacet
  facet normal 0 0 1
    outer loop
      vertex 16.9266 15.0365 1
      vertex 21 17 1
      vertex 17 15.5 1
    endloop
  endfacet
  facet normal 0 0 1
    outer loop
      vertex 16.7135 14.6183 1
      vertex 21 17 1
      vertex 16.9266 15.0365 1
    endloop
  endfacet
  facet normal -0 0 1
    outer loop
      vertex 16.9266 -15.9635 1
      vertex 21 -17 1
      vertex 17 -15.5 1
    endloop
  endfacet
  facet normal -0 0 1
    outer loop
      vertex 16.7135 -16.3817 1
      vertex 21 -17 1
      vertex 16.9266 -15.9635 1
    endloop
  endfacet
  facet normal 0 0 1
    outer loop
      vertex 21 -17 1
      vertex 16.7135 -16.3817 1
      vertex 17 -21 1
    endloop
  endfacet
  facet normal -0 0 1
    outer loop
      vertex 16.3817 -16.7135 1
      vertex 17 -21 1
      vertex 16.7135 -16.3817 1
    endloop
  endfacet
  facet normal -0 0 1
    outer loop
      vertex 15.9635 -16.9266 1
      vertex 17 -21 1
      vertex 16.3817 -16.7135 1
    endloop
  endfacet
  facet normal -0 0 1
    outer loop
      vertex 15.5 -17 1
      vertex 17 -21 1
      vertex 15.9635 -16.9266 1
    endloop
  endfacet
  facet normal 0 0 1
    outer loop
      vertex 15.0365 -16.9266 1
      vertex 17 -21 1
      vertex 15.5 -17 1
    endloop
  endfacet
  facet normal 0 0 1
    outer loop
      vertex 14.6183 -16.7135 1
      vertex 17 -21 1
      vertex 15.0365 -16.9266 1
    endloop
  endfacet
  facet normal 0 0 1
    outer loop
      vertex 14.2865 -16.3817 1
      vertex 17 -21 1
      vertex 14.6183 -16.7135 1
    endloop
  endfacet
  facet normal 0 0 1
    outer loop
      vertex 15.5 -14 1
      vertex 9.95929 -5.75 1
      vertex 15.0365 -14.0734 1
    endloop
  endfacet
  facet normal -0 0 1
    outer loop
      vertex 9.30369 -6.75953 1
      vertex 15.0365 -14.0734 1
      vertex 9.95929 -5.75 1
    endloop
  endfacet
  facet normal 0 0 1
    outer loop
      vertex 15.0365 -14.0734 1
      vertex 9.30369 -6.75953 1
      vertex 14.6183 -14.2865 1
    endloop
  endfacet
  facet normal -0 0 1
    outer loop
      vertex 8.54617 -7.695 1
      vertex 14.6183 -14.2865 1
      vertex 9.30369 -6.75953 1
    endloop
  endfacet
  facet normal 0 0 1
    outer loop
      vertex 14.6183 -14.2865 1
      vertex 8.54617 -7.695 1
      vertex 14.2865 -14.6183 1
    endloop
  endfacet
  facet normal -0 0 1
    outer loop
      vertex 7.695 -8.54617 1
      vertex 14.2865 -14.6183 1
      vertex 8.54617 -7.695 1
    endloop
  endfacet
  facet normal -0 0 1
    outer loop
      vertex 6.75953 -9.30369 1
      vertex 14.2865 -14.6183 1
      vertex 7.695 -8.54617 1
    endloop
  endfacet
  facet normal 0 0 1
    outer loop
      vertex 14.2865 -14.6183 1
      vertex 6.75953 -9.30369 1
      vertex 14.0734 -15.0365 1
    endloop
  endfacet
  facet normal -0 0 1
    outer loop
      vertex 5.75 -9.95929 1
      vertex 14.0734 -15.0365 1
      vertex 6.75953 -9.30369 1
    endloop
  endfacet
  facet normal 0 0 1
    outer loop
      vertex 14.0734 -15.0365 1
      vertex 5.75 -9.95929 1
      vertex 14 -15.5 1
    endloop
  endfacet
  facet normal -0 0 1
    outer loop
      vertex 4.67747 -10.5058 1
      vertex 14 -15.5 1
      vertex 5.75 -9.95929 1
    endloop
  endfacet
  facet normal 0 0 1
    outer loop
      vertex 14 -15.5 1
      vertex 4.67747 -10.5058 1
      vertex 14.0734 -15.9635 1
    endloop
  endfacet
  facet normal -0 0 1
    outer loop
      vertex 3.55369 -10.9371 1
      vertex 14.0734 -15.9635 1
      vertex 4.67747 -10.5058 1
    endloop
  endfacet
  facet normal -0 0 1
    outer loop
      vertex 2.39098 -11.2487 1
      vertex 14.0734 -15.9635 1
      vertex 3.55369 -10.9371 1
    endloop
  endfacet
  facet normal 0 0 1
    outer loop
      vertex 14.0734 -15.9635 1
      vertex 2.39098 -11.2487 1
      vertex 14.2865 -16.3817 1
    endloop
  endfacet
  facet normal -0 0 1
    outer loop
      vertex 1.20208 -11.437 1
      vertex 14.2865 -16.3817 1
      vertex 2.39098 -11.2487 1
    endloop
  endfacet
  facet normal 0 0 1
    outer loop
      vertex 14.2865 -16.3817 1
      vertex 1.20208 -11.437 1
      vertex 17 -21 1
    endloop
  endfacet
  facet normal -0 0 1
    outer loop
      vertex 0 -11.5 1
      vertex 17 -21 1
      vertex 1.20208 -11.437 1
    endloop
  endfacet
  facet normal 0 0 1
    outer loop
      vertex -17 -21 1
      vertex 0 -11.5 1
      vertex -1.20208 -11.437 1
    endloop
  endfacet
  facet normal 0 0 1
    outer loop
      vertex -14.2865 -16.3817 1
      vertex -1.20208 -11.437 1
      vertex -2.39098 -11.2487 1
    endloop
  endfacet
  facet normal 0 0 1
    outer loop
      vertex -14.0734 -15.9635 1
      vertex -2.39098 -11.2487 1
      vertex -3.55369 -10.9371 1
    endloop
  endfacet
  facet normal 0 0 1
    outer loop
      vertex -14.0734 -15.9635 1
      vertex -3.55369 -10.9371 1
      vertex -4.67747 -10.5058 1
    endloop
  endfacet
  facet normal 0 0 1
    outer loop
      vertex -9.95929 5.75 1
      vertex -15.5 14 1
      vertex -10.5058 4.67747 1
    endloop
  endfacet
  facet normal 0 0 1
    outer loop
      vertex -11.5 0 1
      vertex -14 -15.5 1
      vertex -11.437 -1.20208 1
    endloop
  endfacet
  facet normal 0 0 1
    outer loop
      vertex -14 -15.5 1
      vertex -11.2487 -2.39098 1
      vertex -11.437 -1.20208 1
    endloop
  endfacet
  facet normal 0 0 1
    outer loop
      vertex -14 -15.5 1
      vertex -10.9371 -3.55369 1
      vertex -11.2487 -2.39098 1
    endloop
  endfacet
  facet normal 0 0 1
    outer loop
      vertex -14 -15.5 1
      vertex -10.5058 -4.67747 1
      vertex -10.9371 -3.55369 1
    endloop
  endfacet
  facet normal 0 0 1
    outer loop
      vertex -14 -15.5 1
      vertex -9.95929 -5.75 1
      vertex -10.5058 -4.67747 1
    endloop
  endfacet
  facet normal 0 0 1
    outer loop
      vertex -14 -15.5 1
      vertex -9.30369 -6.75953 1
      vertex -9.95929 -5.75 1
    endloop
  endfacet
  facet normal 0 0 1
    outer loop
      vertex -14 -15.5 1
      vertex -8.54617 -7.695 1
      vertex -9.30369 -6.75953 1
    endloop
  endfacet
  facet normal 0 0 1
    outer loop
      vertex -14 -15.5 1
      vertex -7.695 -8.54617 1
      vertex -8.54617 -7.695 1
    endloop
  endfacet
  facet normal 0 0 1
    outer loop
      vertex -14 -15.5 1
      vertex -6.75953 -9.30369 1
      vertex -7.695 -8.54617 1
    endloop
  endfacet
  facet normal 0 0 1
    outer loop
      vertex -14 -15.5 1
      vertex -5.75 -9.95929 1
      vertex -6.75953 -9.30369 1
    endloop
  endfacet
  facet normal 0 0 1
    outer loop
      vertex -14 -15.5 1
      vertex -4.67747 -10.5058 1
      vertex -5.75 -9.95929 1
    endloop
  endfacet
  facet normal 0 0 1
    outer loop
      vertex -14.0734 -15.9635 1
      vertex -4.67747 -10.5058 1
      vertex -14 -15.5 1
    endloop
  endfacet
  facet normal 0 0 1
    outer loop
      vertex -2.39098 -11.2487 1
      vertex -14.0734 -15.9635 1
      vertex -14.2865 -16.3817 1
    endloop
  endfacet
  facet normal 0 0 1
    outer loop
      vertex -1.20208 -11.437 1
      vertex -14.2865 -16.3817 1
      vertex -17 -21 1
    endloop
  endfacet
  facet normal 0 0 1
    outer loop
      vertex -17 -21 1
      vertex -14.2865 -16.3817 1
      vertex -14.6183 -16.7135 1
    endloop
  endfacet
  facet normal 0 0 1
    outer loop
      vertex -17 -21 1
      vertex -14.6183 -16.7135 1
      vertex -15.0365 -16.9266 1
    endloop
  endfacet
  facet normal 0 0 1
    outer loop
      vertex -17 -21 1
      vertex -15.0365 -16.9266 1
      vertex -15.5 -17 1
    endloop
  endfacet
  facet normal 0 0 1
    outer loop
      vertex 0 -11.5 1
      vertex -17 -21 1
      vertex 17 -21 1
    endloop
  endfacet
  facet normal 0 0 1
    outer loop
      vertex -15.9635 -16.9266 1
      vertex -17 -21 1
      vertex -15.5 -17 1
    endloop
  endfacet
  facet normal 0 0 1
    outer loop
      vertex -16.3817 -16.7135 1
      vertex -17 -21 1
      vertex -15.9635 -16.9266 1
    endloop
  endfacet
  facet normal 0 0 1
    outer loop
      vertex -16.7135 -16.3817 1
      vertex -17 -21 1
      vertex -16.3817 -16.7135 1
    endloop
  endfacet
  facet normal 0 0 1
    outer loop
      vertex -16.9266 -15.9635 1
      vertex -17 -21 1
      vertex -16.7135 -16.3817 1
    endloop
  endfacet
  facet normal 0 0 1
    outer loop
      vertex -17 -21 1
      vertex -16.9266 -15.9635 1
      vertex -17 -15.5 1
    endloop
  endfacet
  facet normal 1 -0 0
    outer loop
      vertex 21 -17 1
      vertex 21 17 -1
      vertex 21 17 1
    endloop
  endfacet
  facet normal 1 0 0
    outer loop
      vertex 21 17 -1
      vertex 21 -17 1
      vertex 21 -17 -1
    endloop
  endfacet
  facet normal 0 1 -0
    outer loop
      vertex 17 21 -1
      vertex -17 21 1
      vertex 17 21 1
    endloop
  endfacet
  facet normal 0 1 0
    outer loop
      vertex -17 21 1
      vertex 17 21 -1
      vertex -17 21 -1
    endloop
  endfacet
  facet normal 0 0 -1
    outer loop
      vertex -15.9635 -14.0734 -1
      vertex -10.5058 -4.67747 -1
      vertex -15.5 -14 -1
    endloop
  endfacet
  facet normal 0 0 -1
    outer loop
      vertex -11.5 0 -1
      vertex -14.0734 15.0365 -1
      vertex -14 15.5 -1
    endloop
  endfacet
  facet normal -0 0 -1
    outer loop
      vertex -10.5058 -4.67747 -1
      vertex -15.9635 -14.0734 -1
      vertex -10.9371 -3.55369 -1
    endloop
  endfacet
  facet normal 0 0 -1
    outer loop
      vertex -11.5 0 -1
      vertex -14.2865 14.6183 -1
      vertex -14.0734 15.0365 -1
    endloop
  endfacet
  facet normal -0 0 -1
    outer loop
      vertex -10.9371 -3.55369 -1
      vertex -15.9635 -14.0734 -1
      vertex -11.2487 -2.39098 -1
    endloop
  endfacet
  facet normal 0 0 -1
    outer loop
      vertex -11.5 0 -1
      vertex -14.6183 14.2865 -1
      vertex -14.2865 14.6183 -1
    endloop
  endfacet
  facet normal 0 0 -1
    outer loop
      vertex -16.3817 -14.2865 -1
      vertex -11.2487 -2.39098 -1
      vertex -15.9635 -14.0734 -1
    endloop
  endfacet
  facet normal 0 0 -1
    outer loop
      vertex -11.5 0 -1
      vertex -15.0365 14.0734 -1
      vertex -14.6183 14.2865 -1
    endloop
  endfacet
  facet normal -0 0 -1
    outer loop
      vertex -11.2487 -2.39098 -1
      vertex -16.3817 -14.2865 -1
      vertex -11.437 -1.20208 -1
    endloop
  endfacet
  facet normal 0 0 -1
    outer loop
      vertex -11.5 0 -1
      vertex -15.5 14 -1
      vertex -15.0365 14.0734 -1
    endloop
  endfacet
  facet normal 0 0 -1
    outer loop
      vertex -21 -17 -1
      vertex -11.437 -1.20208 -1
      vertex -16.3817 -14.2865 -1
    endloop
  endfacet
  facet normal 0 0 -1
    outer loop
      vertex -11.5 0 -1
      vertex -15.9635 14.0734 -1
      vertex -15.5 14 -1
    endloop
  endfacet
  facet normal -0 0 -1
    outer loop
      vertex -11.437 -1.20208 -1
      vertex -21 -17 -1
      vertex -11.5 0 -1
    endloop
  endfacet
  facet normal 0 0 -1
    outer loop
      vertex -11.5 0 -1
      vertex -16.3817 14.2865 -1
      vertex -15.9635 14.0734 -1
    endloop
  endfacet
  facet normal 0 0 -1
    outer loop
      vertex -21 -17 -1
      vertex -16.3817 -14.2865 -1
      vertex -16.7135 -14.6183 -1
    endloop
  endfacet
  facet normal 0 0 -1
    outer loop
      vertex -21 17 -1
      vertex -11.5 0 -1
      vertex -21 -17 -1
    endloop
  endfacet
  facet normal 0 0 -1
    outer loop
      vertex -21 -17 -1
      vertex -16.7135 -14.6183 -1
      vertex -16.9266 -15.0365 -1
    endloop
  endfacet
  facet normal 0 0 -1
    outer loop
      vertex -11.5 0 -1
      vertex -21 17 -1
      vertex -16.3817 14.2865 -1
    endloop
  endfacet
  facet normal 0 0 -1
    outer loop
      vertex -21 -17 -1
      vertex -16.9266 -15.0365 -1
      vertex -17 -15.5 -1
    endloop
  endfacet
  facet normal 0 0 -1
    outer loop
      vertex -16.3817 14.2865 -1
      vertex -21 17 -1
      vertex -16.7135 14.6183 -1
    endloop
  endfacet
  facet normal 0 0 -1
    outer loop
      vertex 16.3817 -14.2865 -1
      vertex 21 -17 -1
      vertex 16.7135 -14.6183 -1
    endloop
  endfacet
  facet normal 0 0 -1
    outer loop
      vertex 21 17 -1
      vertex 16.9266 15.0365 -1
      vertex 17 15.5 -1
    endloop
  endfacet
  facet normal 0 0 -1
    outer loop
      vertex 21 -17 -1
      vertex 11.5 0 -1
      vertex 21 17 -1
    endloop
  endfacet
  facet normal 0 0 -1
    outer loop
      vertex 21 17 -1
      vertex 16.7135 14.6183 -1
      vertex 16.9266 15.0365 -1
    endloop
  endfacet
  facet normal 0 0 -1
    outer loop
      vertex 21 -17 -1
      vertex 16.3817 -14.2865 -1
      vertex 11.437 -1.20208 -1
    endloop
  endfacet
  facet normal 0 0 -1
    outer loop
      vertex 11.437 1.20208 -1
      vertex 21 17 -1
      vertex 11.5 0 -1
    endloop
  endfacet
  facet normal 0 0 -1
    outer loop
      vertex 11.2487 -2.39098 -1
      vertex 16.3817 -14.2865 -1
      vertex 15.9635 -14.0734 -1
    endloop
  endfacet
  facet normal 0 -0 -1
    outer loop
      vertex 16.3817 14.2865 -1
      vertex 21 17 -1
      vertex 11.437 1.20208 -1
    endloop
  endfacet
  facet normal 0 0 -1
    outer loop
      vertex 10.5058 -4.67747 -1
      vertex 15.9635 -14.0734 -1
      vertex 15.5 -14 -1
    endloop
  endfacet
  facet normal 0 0 -1
    outer loop
      vertex 21 17 -1
      vertex 16.3817 14.2865 -1
      vertex 16.7135 14.6183 -1
    endloop
  endfacet
  facet normal 0 0 -1
    outer loop
      vertex 9.95929 -5.75 -1
      vertex 15.5 -14 -1
      vertex 15.0365 -14.0734 -1
    endloop
  endfacet
  facet normal 0 0 -1
    outer loop
      vertex 11.2487 2.39098 -1
      vertex 16.3817 14.2865 -1
      vertex 11.437 1.20208 -1
    endloop
  endfacet
  facet normal 0 0 -1
    outer loop
      vertex 9.30369 -6.75953 -1
      vertex 15.0365 -14.0734 -1
      vertex 14.6183 -14.2865 -1
    endloop
  endfacet
  facet normal 0 0 -1
    outer loop
      vertex 16.3817 14.2865 -1
      vertex 11.2487 2.39098 -1
      vertex 15.9635 14.0734 -1
    endloop
  endfacet
  facet normal 0 0 -1
    outer loop
      vertex 8.54617 -7.695 -1
      vertex 14.6183 -14.2865 -1
      vertex 14.2865 -14.6183 -1
    endloop
  endfacet
  facet normal 0 0 -1
    outer loop
      vertex 10.9371 3.55369 -1
      vertex 15.9635 14.0734 -1
      vertex 11.2487 2.39098 -1
    endloop
  endfacet
  facet normal 0 0 -1
    outer loop
      vertex 6.75953 -9.30369 -1
      vertex 14.2865 -14.6183 -1
      vertex 14.0734 -15.0365 -1
    endloop
  endfacet
  facet normal 0 0 -1
    outer loop
      vertex 10.5058 4.67747 -1
      vertex 15.9635 14.0734 -1
      vertex 10.9371 3.55369 -1
    endloop
  endfacet
  facet normal 0 0 -1
    outer loop
      vertex 5.75 -9.95929 -1
      vertex 14.0734 -15.0365 -1
      vertex 14 -15.5 -1
    endloop
  endfacet
  facet normal 0 0 -1
    outer loop
      vertex 15.9635 14.0734 -1
      vertex 10.5058 4.67747 -1
      vertex 15.5 14 -1
    endloop
  endfacet
  facet normal 0 0 -1
    outer loop
      vertex 21 -17 -1
      vertex 16.9266 -15.9635 -1
      vertex 17 -15.5 -1
    endloop
  endfacet
  facet normal 0 0 -1
    outer loop
      vertex 21 -17 -1
      vertex 16.7135 -16.3817 -1
      vertex 16.9266 -15.9635 -1
    endloop
  endfacet
  facet normal 0 0 -1
    outer loop
      vertex 17 -21 -1
      vertex 16.3817 -16.7135 -1
      vertex 16.7135 -16.3817 -1
    endloop
  endfacet
  facet normal 0 0 -1
    outer loop
      vertex 17 -21 -1
      vertex 15.9635 -16.9266 -1
      vertex 16.3817 -16.7135 -1
    endloop
  endfacet
  facet normal 0 0 -1
    outer loop
      vertex 17 -21 -1
      vertex 15.5 -17 -1
      vertex 15.9635 -16.9266 -1
    endloop
  endfacet
  facet normal 0 0 -1
    outer loop
      vertex 17 -21 -1
      vertex 15.0365 -16.9266 -1
      vertex 15.5 -17 -1
    endloop
  endfacet
  facet normal 0 0 -1
    outer loop
      vertex 17 -21 -1
      vertex 14.6183 -16.7135 -1
      vertex 15.0365 -16.9266 -1
    endloop
  endfacet
  facet normal 0 0 -1
    outer loop
      vertex 17 -21 -1
      vertex 14.2865 -16.3817 -1
      vertex 14.6183 -16.7135 -1
    endloop
  endfacet
  facet normal 0 0 -1
    outer loop
      vertex 9.95929 5.75 -1
      vertex 15.5 14 -1
      vertex 10.5058 4.67747 -1
    endloop
  endfacet
  facet normal 0 0 -1
    outer loop
      vertex 4.67747 -10.5058 -1
      vertex 14 -15.5 -1
      vertex 14.0734 -15.9635 -1
    endloop
  endfacet
  facet normal 0 0 -1
    outer loop
      vertex 21 -17 -1
      vertex 11.437 -1.20208 -1
      vertex 11.5 0 -1
    endloop
  endfacet
  facet normal 0 0 -1
    outer loop
      vertex 16.3817 -14.2865 -1
      vertex 11.2487 -2.39098 -1
      vertex 11.437 -1.20208 -1
    endloop
  endfacet
  facet normal 0 0 -1
    outer loop
      vertex 15.9635 -14.0734 -1
      vertex 10.9371 -3.55369 -1
      vertex 11.2487 -2.39098 -1
    endloop
  endfacet
  facet normal 0 0 -1
    outer loop
      vertex 15.9635 -14.0734 -1
      vertex 10.5058 -4.67747 -1
      vertex 10.9371 -3.55369 -1
    endloop
  endfacet
  facet normal 0 0 -1
    outer loop
      vertex 15.5 -14 -1
      vertex 9.95929 -5.75 -1
      vertex 10.5058 -4.67747 -1
    endloop
  endfacet
  facet normal 0 0 -1
    outer loop
      vertex 15.0365 -14.0734 -1
      vertex 9.30369 -6.75953 -1
      vertex 9.95929 -5.75 -1
    endloop
  endfacet
  facet normal 0 0 -1
    outer loop
      vertex 2.39098 -11.2487 -1
      vertex 14.0734 -15.9635 -1
      vertex 14.2865 -16.3817 -1
    endloop
  endfacet
  facet normal 0 0 -1
    outer loop
      vertex 14.6183 -14.2865 -1
      vertex 8.54617 -7.695 -1
      vertex 9.30369 -6.75953 -1
    endloop
  endfacet
  facet normal 0 0 -1
    outer loop
      vertex 1.20208 -11.437 -1
      vertex 14.2865 -16.3817 -1
      vertex 17 -21 -1
    endloop
  endfacet
  facet normal 0 0 -1
    outer loop
      vertex 14.2865 -14.6183 -1
      vertex 7.695 -8.54617 -1
      vertex 8.54617 -7.695 -1
    endloop
  endfacet
  facet normal 0 0 -1
    outer loop
      vertex 14.2865 -14.6183 -1
      vertex 6.75953 -9.30369 -1
      vertex 7.695 -8.54617 -1
    endloop
  endfacet
  facet normal 0 0 -1
    outer loop
      vertex 14.0734 -15.0365 -1
      vertex 5.75 -9.95929 -1
      vertex 6.75953 -9.30369 -1
    endloop
  endfacet
  facet normal 0 0 -1
    outer loop
      vertex 14 -15.5 -1
      vertex 4.67747 -10.5058 -1
      vertex 5.75 -9.95929 -1
    endloop
  endfacet
  facet normal 0 0 -1
    outer loop
      vertex 14.0734 -15.9635 -1
      vertex 3.55369 -10.9371 -1
      vertex 4.67747 -10.5058 -1
    endloop
  endfacet
  facet normal 0 0 -1
    outer loop
      vertex 14.0734 -15.9635 -1
      vertex 2.39098 -11.2487 -1
      vertex 3.55369 -10.9371 -1
    endloop
  endfacet
  facet normal 0 0 -1
    outer loop
      vertex 14.2865 -16.3817 -1
      vertex 1.20208 -11.437 -1
      vertex 2.39098 -11.2487 -1
    endloop
  endfacet
  facet normal 0 0 -1
    outer loop
      vertex 17 -21 -1
      vertex 0 -11.5 -1
      vertex 1.20208 -11.437 -1
    endloop
  endfacet
  facet normal 0 0 -1
    outer loop
      vertex -17 -21 -1
      vertex 0 -11.5 -1
      vertex 17 -21 -1
    endloop
  endfacet
  facet normal -0 0 -1
    outer loop
      vertex 0 -11.5 -1
      vertex -17 -21 -1
      vertex -1.20208 -11.437 -1
    endloop
  endfacet
  facet normal 0 -0 -1
    outer loop
      vertex -14.2865 -16.3817 -1
      vertex -1.20208 -11.437 -1
      vertex -17 -21 -1
    endloop
  endfacet
  facet normal -0 0 -1
    outer loop
      vertex -1.20208 -11.437 -1
      vertex -14.2865 -16.3817 -1
      vertex -2.39098 -11.2487 -1
    endloop
  endfacet
  facet normal 0 0 -1
    outer loop
      vertex -15.5 -14 -1
      vertex -9.95929 -5.75 -1
      vertex -15.0365 -14.0734 -1
    endloop
  endfacet
  facet normal -0 0 -1
    outer loop
      vertex -9.30369 -6.75953 -1
      vertex -15.0365 -14.0734 -1
      vertex -9.95929 -5.75 -1
    endloop
  endfacet
  facet normal 0 0 -1
    outer loop
      vertex -15.0365 -14.0734 -1
      vertex -9.30369 -6.75953 -1
      vertex -14.6183 -14.2865 -1
    endloop
  endfacet
  facet normal -0 0 -1
    outer loop
      vertex -8.54617 -7.695 -1
      vertex -14.6183 -14.2865 -1
      vertex -9.30369 -6.75953 -1
    endloop
  endfacet
  facet normal 0 0 -1
    outer loop
      vertex -14.6183 -14.2865 -1
      vertex -8.54617 -7.695 -1
      vertex -14.2865 -14.6183 -1
    endloop
  endfacet
  facet normal -0 0 -1
    outer loop
      vertex -7.695 -8.54617 -1
      vertex -14.2865 -14.6183 -1
      vertex -8.54617 -7.695 -1
    endloop
  endfacet
  facet normal -0 0 -1
    outer loop
      vertex -6.75953 -9.30369 -1
      vertex -14.2865 -14.6183 -1
      vertex -7.695 -8.54617 -1
    endloop
  endfacet
  facet normal 0 0 -1
    outer loop
      vertex -14.2865 -14.6183 -1
      vertex -6.75953 -9.30369 -1
      vertex -14.0734 -15.0365 -1
    endloop
  endfacet
  facet normal -0 0 -1
    outer loop
      vertex -5.75 -9.95929 -1
      vertex -14.0734 -15.0365 -1
      vertex -6.75953 -9.30369 -1
    endloop
  endfacet
  facet normal 0 0 -1
    outer loop
      vertex -14.0734 -15.0365 -1
      vertex -5.75 -9.95929 -1
      vertex -14 -15.5 -1
    endloop
  endfacet
  facet normal -0 0 -1
    outer loop
      vertex -4.67747 -10.5058 -1
      vertex -14 -15.5 -1
      vertex -5.75 -9.95929 -1
    endloop
  endfacet
  facet normal 0 -0 -1
    outer loop
      vertex -14.0734 -15.9635 -1
      vertex -2.39098 -11.2487 -1
      vertex -14.2865 -16.3817 -1
    endloop
  endfacet
  facet normal 0 0 -1
    outer loop
      vertex -4.67747 -10.5058 -1
      vertex -14.0734 -15.9635 -1
      vertex -14 -15.5 -1
    endloop
  endfacet
  facet normal -0 0 -1
    outer loop
      vertex -3.55369 -10.9371 -1
      vertex -14.0734 -15.9635 -1
      vertex -4.67747 -10.5058 -1
    endloop
  endfacet
  facet normal -0 0 -1
    outer loop
      vertex -2.39098 -11.2487 -1
      vertex -14.0734 -15.9635 -1
      vertex -3.55369 -10.9371 -1
    endloop
  endfacet
  facet normal 0 0 -1
    outer loop
      vertex -14.2865 -16.3817 -1
      vertex -17 -21 -1
      vertex -14.6183 -16.7135 -1
    endloop
  endfacet
  facet normal 0 0 -1
    outer loop
      vertex -14.6183 -16.7135 -1
      vertex -17 -21 -1
      vertex -15.0365 -16.9266 -1
    endloop
  endfacet
  facet normal 0 0 -1
    outer loop
      vertex -15.0365 -16.9266 -1
      vertex -17 -21 -1
      vertex -15.5 -17 -1
    endloop
  endfacet
  facet normal 0 0 -1
    outer loop
      vertex -17 -21 -1
      vertex -15.9635 -16.9266 -1
      vertex -15.5 -17 -1
    endloop
  endfacet
  facet normal 0 0 -1
    outer loop
      vertex -17 -21 -1
      vertex -16.3817 -16.7135 -1
      vertex -15.9635 -16.9266 -1
    endloop
  endfacet
  facet normal 0 0 -1
    outer loop
      vertex -17 -21 -1
      vertex -16.7135 -16.3817 -1
      vertex -16.3817 -16.7135 -1
    endloop
  endfacet
  facet normal 0 0 -1
    outer loop
      vertex -21 -17 -1
      vertex -16.7135 -16.3817 -1
      vertex -17 -21 -1
    endloop
  endfacet
  facet normal -0 0 -1
    outer loop
      vertex -16.7135 -16.3817 -1
      vertex -21 -17 -1
      vertex -16.9266 -15.9635 -1
    endloop
  endfacet
  facet normal -0 0 -1
    outer loop
      vertex -16.9266 -15.9635 -1
      vertex -21 -17 -1
      vertex -17 -15.5 -1
    endloop
  endfacet
  facet normal 0 0 -1
    outer loop
      vertex -16.7135 14.6183 -1
      vertex -21 17 -1
      vertex -16.9266 15.0365 -1
    endloop
  endfacet
  facet normal 0 0 -1
    outer loop
      vertex -16.9266 15.0365 -1
      vertex -21 17 -1
      vertex -17 15.5 -1
    endloop
  endfacet
  facet normal 0 0 -1
    outer loop
      vertex -17 15.5 -1
      vertex -21 17 -1
      vertex -17 21 -1
    endloop
  endfacet
  facet normal 0 0 -1
    outer loop
      vertex 16.7135 -16.3817 -1
      vertex 21 -17 -1
      vertex 17 -21 -1
    endloop
  endfacet
  facet normal 0 0 -1
    outer loop
      vertex 16.9266 -15.0365 -1
      vertex 21 -17 -1
      vertex 17 -15.5 -1
    endloop
  endfacet
  facet normal 0 0 -1
    outer loop
      vertex 16.7135 -14.6183 -1
      vertex 21 -17 -1
      vertex 16.9266 -15.0365 -1
    endloop
  endfacet
  facet normal 0 0 -1
    outer loop
      vertex 16.9266 15.9635 -1
      vertex 21 17 -1
      vertex 17 15.5 -1
    endloop
  endfacet
  facet normal 0 0 -1
    outer loop
      vertex 16.7135 16.3817 -1
      vertex 21 17 -1
      vertex 16.9266 15.9635 -1
    endloop
  endfacet
  facet normal -0 0 -1
    outer loop
      vertex 21 17 -1
      vertex 16.7135 16.3817 -1
      vertex 17 21 -1
    endloop
  endfacet
  facet normal 0 0 -1
    outer loop
      vertex 16.3817 16.7135 -1
      vertex 17 21 -1
      vertex 16.7135 16.3817 -1
    endloop
  endfacet
  facet normal 0 0 -1
    outer loop
      vertex 15.9635 16.9266 -1
      vertex 17 21 -1
      vertex 16.3817 16.7135 -1
    endloop
  endfacet
  facet normal 0 0 -1
    outer loop
      vertex 15.5 17 -1
      vertex 17 21 -1
      vertex 15.9635 16.9266 -1
    endloop
  endfacet
  facet normal 0 0 -1
    outer loop
      vertex 15.0365 16.9266 -1
      vertex 17 21 -1
      vertex 15.5 17 -1
    endloop
  endfacet
  facet normal 0 0 -1
    outer loop
      vertex 14.6183 16.7135 -1
      vertex 17 21 -1
      vertex 15.0365 16.9266 -1
    endloop
  endfacet
  facet normal 0 0 -1
    outer loop
      vertex 14.2865 16.3817 -1
      vertex 17 21 -1
      vertex 14.6183 16.7135 -1
    endloop
  endfacet
  facet normal -0 0 -1
    outer loop
      vertex 15.5 14 -1
      vertex 9.95929 5.75 -1
      vertex 15.0365 14.0734 -1
    endloop
  endfacet
  facet normal 0 0 -1
    outer loop
      vertex 9.30369 6.75953 -1
      vertex 15.0365 14.0734 -1
      vertex 9.95929 5.75 -1
    endloop
  endfacet
  facet normal -0 0 -1
    outer loop
      vertex 15.0365 14.0734 -1
      vertex 9.30369 6.75953 -1
      vertex 14.6183 14.2865 -1
    endloop
  endfacet
  facet normal 0 0 -1
    outer loop
      vertex 8.54617 7.695 -1
      vertex 14.6183 14.2865 -1
      vertex 9.30369 6.75953 -1
    endloop
  endfacet
  facet normal -0 0 -1
    outer loop
      vertex 14.6183 14.2865 -1
      vertex 8.54617 7.695 -1
      vertex 14.2865 14.6183 -1
    endloop
  endfacet
  facet normal 0 0 -1
    outer loop
      vertex 7.695 8.54617 -1
      vertex 14.2865 14.6183 -1
      vertex 8.54617 7.695 -1
    endloop
  endfacet
  facet normal 0 0 -1
    outer loop
      vertex 6.75953 9.30369 -1
      vertex 14.2865 14.6183 -1
      vertex 7.695 8.54617 -1
    endloop
  endfacet
  facet normal -0 0 -1
    outer loop
      vertex 14.2865 14.6183 -1
      vertex 6.75953 9.30369 -1
      vertex 14.0734 15.0365 -1
    endloop
  endfacet
  facet normal 0 0 -1
    outer loop
      vertex 5.75 9.95929 -1
      vertex 14.0734 15.0365 -1
      vertex 6.75953 9.30369 -1
    endloop
  endfacet
  facet normal -0 0 -1
    outer loop
      vertex 14.0734 15.0365 -1
      vertex 5.75 9.95929 -1
      vertex 14 15.5 -1
    endloop
  endfacet
  facet normal 0 0 -1
    outer loop
      vertex 4.67747 10.5058 -1
      vertex 14 15.5 -1
      vertex 5.75 9.95929 -1
    endloop
  endfacet
  facet normal -0 0 -1
    outer loop
      vertex 14 15.5 -1
      vertex 4.67747 10.5058 -1
      vertex 14.0734 15.9635 -1
    endloop
  endfacet
  facet normal 0 0 -1
    outer loop
      vertex 3.55369 10.9371 -1
      vertex 14.0734 15.9635 -1
      vertex 4.67747 10.5058 -1
    endloop
  endfacet
  facet normal 0 0 -1
    outer loop
      vertex 2.39098 11.2487 -1
      vertex 14.0734 15.9635 -1
      vertex 3.55369 10.9371 -1
    endloop
  endfacet
  facet normal -0 0 -1
    outer loop
      vertex 14.0734 15.9635 -1
      vertex 2.39098 11.2487 -1
      vertex 14.2865 16.3817 -1
    endloop
  endfacet
  facet normal 0 0 -1
    outer loop
      vertex 1.20208 11.437 -1
      vertex 14.2865 16.3817 -1
      vertex 2.39098 11.2487 -1
    endloop
  endfacet
  facet normal -0 0 -1
    outer loop
      vertex 14.2865 16.3817 -1
      vertex 1.20208 11.437 -1
      vertex 17 21 -1
    endloop
  endfacet
  facet normal 0 0 -1
    outer loop
      vertex 0 11.5 -1
      vertex 17 21 -1
      vertex 1.20208 11.437 -1
    endloop
  endfacet
  facet normal 0 0 -1
    outer loop
      vertex -17 21 -1
      vertex 0 11.5 -1
      vertex -1.20208 11.437 -1
    endloop
  endfacet
  facet normal 0 0 -1
    outer loop
      vertex -14.2865 16.3817 -1
      vertex -1.20208 11.437 -1
      vertex -2.39098 11.2487 -1
    endloop
  endfacet
  facet normal 0 0 -1
    outer loop
      vertex -14.0734 15.9635 -1
      vertex -2.39098 11.2487 -1
      vertex -3.55369 10.9371 -1
    endloop
  endfacet
  facet normal 0 0 -1
    outer loop
      vertex -14.0734 15.9635 -1
      vertex -3.55369 10.9371 -1
      vertex -4.67747 10.5058 -1
    endloop
  endfacet
  facet normal -0 0 -1
    outer loop
      vertex -9.95929 -5.75 -1
      vertex -15.5 -14 -1
      vertex -10.5058 -4.67747 -1
    endloop
  endfacet
  facet normal 0 0 -1
    outer loop
      vertex -11.5 0 -1
      vertex -14 15.5 -1
      vertex -11.437 1.20208 -1
    endloop
  endfacet
  facet normal 0 0 -1
    outer loop
      vertex -14 15.5 -1
      vertex -11.2487 2.39098 -1
      vertex -11.437 1.20208 -1
    endloop
  endfacet
  facet normal 0 0 -1
    outer loop
      vertex -14 15.5 -1
      vertex -10.9371 3.55369 -1
      vertex -11.2487 2.39098 -1
    endloop
  endfacet
  facet normal 0 0 -1
    outer loop
      vertex -14 15.5 -1
      vertex -10.5058 4.67747 -1
      vertex -10.9371 3.55369 -1
    endloop
  endfacet
  facet normal 0 0 -1
    outer loop
      vertex -14 15.5 -1
      vertex -9.95929 5.75 -1
      vertex -10.5058 4.67747 -1
    endloop
  endfacet
  facet normal 0 0 -1
    outer loop
      vertex -14 15.5 -1
      vertex -9.30369 6.75953 -1
      vertex -9.95929 5.75 -1
    endloop
  endfacet
  facet normal 0 0 -1
    outer loop
      vertex -14 15.5 -1
      vertex -8.54617 7.695 -1
      vertex -9.30369 6.75953 -1
    endloop
  endfacet
  facet normal 0 0 -1
    outer loop
      vertex -14 15.5 -1
      vertex -7.695 8.54617 -1
      vertex -8.54617 7.695 -1
    endloop
  endfacet
  facet normal 0 0 -1
    outer loop
      vertex -14 15.5 -1
      vertex -6.75953 9.30369 -1
      vertex -7.695 8.54617 -1
    endloop
  endfacet
  facet normal 0 0 -1
    outer loop
      vertex -14 15.5 -1
      vertex -5.75 9.95929 -1
      vertex -6.75953 9.30369 -1
    endloop
  endfacet
  facet normal 0 0 -1
    outer loop
      vertex -14 15.5 -1
      vertex -4.67747 10.5058 -1
      vertex -5.75 9.95929 -1
    endloop
  endfacet
  facet normal 0 0 -1
    outer loop
      vertex -14.0734 15.9635 -1
      vertex -4.67747 10.5058 -1
      vertex -14 15.5 -1
    endloop
  endfacet
  facet normal 0 0 -1
    outer loop
      vertex -2.39098 11.2487 -1
      vertex -14.0734 15.9635 -1
      vertex -14.2865 16.3817 -1
    endloop
  endfacet
  facet normal 0 0 -1
    outer loop
      vertex -1.20208 11.437 -1
      vertex -14.2865 16.3817 -1
      vertex -17 21 -1
    endloop
  endfacet
  facet normal 0 0 -1
    outer loop
      vertex -17 21 -1
      vertex -14.2865 16.3817 -1
      vertex -14.6183 16.7135 -1
    endloop
  endfacet
  facet normal 0 0 -1
    outer loop
      vertex -17 21 -1
      vertex -14.6183 16.7135 -1
      vertex -15.0365 16.9266 -1
    endloop
  endfacet
  facet normal 0 0 -1
    outer loop
      vertex -17 21 -1
      vertex -15.0365 16.9266 -1
      vertex -15.5 17 -1
    endloop
  endfacet
  facet normal 0 0 -1
    outer loop
      vertex 0 11.5 -1
      vertex -17 21 -1
      vertex 17 21 -1
    endloop
  endfacet
  facet normal 0 0 -1
    outer loop
      vertex -15.9635 16.9266 -1
      vertex -17 21 -1
      vertex -15.5 17 -1
    endloop
  endfacet
  facet normal 0 0 -1
    outer loop
      vertex -16.3817 16.7135 -1
      vertex -17 21 -1
      vertex -15.9635 16.9266 -1
    endloop
  endfacet
  facet normal 0 0 -1
    outer loop
      vertex -16.7135 16.3817 -1
      vertex -17 21 -1
      vertex -16.3817 16.7135 -1
    endloop
  endfacet
  facet normal 0 0 -1
    outer loop
      vertex -16.9266 15.9635 -1
      vertex -17 21 -1
      vertex -16.7135 16.3817 -1
    endloop
  endfacet
  facet normal 0 0 -1
    outer loop
      vertex -17 21 -1
      vertex -16.9266 15.9635 -1
      vertex -17 15.5 -1
    endloop
  endfacet
  facet normal 0 -1 0
    outer loop
      vertex -17 -21 -1
      vertex 17 -21 1
      vertex -17 -21 1
    endloop
  endfacet
  facet normal 0 -1 -0
    outer loop
      vertex 17 -21 1
      vertex -17 -21 -1
      vertex 17 -21 -1
    endloop
  endfacet
  facet normal -0.99863 -0.0523364 0
    outer loop
      vertex 11.5 0 -1
      vertex 11.437 1.20208 1
      vertex 11.437 1.20208 -1
    endloop
  endfacet
  facet normal -0.99863 -0.0523364 0
    outer loop
      vertex 11.437 1.20208 1
      vertex 11.5 0 -1
      vertex 11.5 0 1
    endloop
  endfacet
  facet normal 0.99863 -0.0523364 0
    outer loop
      vertex -11.5 0 1
      vertex -11.437 1.20208 -1
      vertex -11.437 1.20208 1
    endloop
  endfacet
  facet normal 0.99863 -0.0523364 0
    outer loop
      vertex -11.437 1.20208 -1
      vertex -11.5 0 1
      vertex -11.5 0 -1
    endloop
  endfacet
  facet normal -0.0523364 -0.99863 0
    outer loop
      vertex 0 11.5 -1
      vertex 1.20208 11.437 1
      vertex 0 11.5 1
    endloop
  endfacet
  facet normal -0.0523364 -0.99863 -0
    outer loop
      vertex 1.20208 11.437 1
      vertex 0 11.5 -1
      vertex 1.20208 11.437 -1
    endloop
  endfacet
  facet normal -0.707107 -0.707107 0
    outer loop
      vertex 8.54617 7.695 -1
      vertex 7.695 8.54617 1
      vertex 7.695 8.54617 -1
    endloop
  endfacet
  facet normal -0.707107 -0.707107 0
    outer loop
      vertex 7.695 8.54617 1
      vertex 8.54617 7.695 -1
      vertex 8.54617 7.695 1
    endloop
  endfacet
  facet normal 0.62932 -0.777146 0
    outer loop
      vertex -7.695 8.54617 -1
      vertex -6.75953 9.30369 1
      vertex -7.695 8.54617 1
    endloop
  endfacet
  facet normal 0.62932 -0.777146 0
    outer loop
      vertex -6.75953 9.30369 1
      vertex -7.695 8.54617 -1
      vertex -6.75953 9.30369 -1
    endloop
  endfacet
  facet normal 0.358367 -0.933581 0
    outer loop
      vertex -4.67747 10.5058 -1
      vertex -3.55369 10.9371 1
      vertex -4.67747 10.5058 1
    endloop
  endfacet
  facet normal 0.358367 -0.933581 0
    outer loop
      vertex -3.55369 10.9371 1
      vertex -4.67747 10.5058 -1
      vertex -3.55369 10.9371 -1
    endloop
  endfacet
  facet normal -0.933581 -0.358367 0
    outer loop
      vertex 10.9371 3.55369 -1
      vertex 10.5058 4.67747 1
      vertex 10.5058 4.67747 -1
    endloop
  endfacet
  facet normal -0.933581 -0.358367 0
    outer loop
      vertex 10.5058 4.67747 1
      vertex 10.9371 3.55369 -1
      vertex 10.9371 3.55369 1
    endloop
  endfacet
  facet normal -0.987688 -0.156434 0
    outer loop
      vertex 11.437 1.20208 -1
      vertex 11.2487 2.39098 1
      vertex 11.2487 2.39098 -1
    endloop
  endfacet
  facet normal -0.987688 -0.156434 0
    outer loop
      vertex 11.2487 2.39098 1
      vertex 11.437 1.20208 -1
      vertex 11.437 1.20208 1
    endloop
  endfacet
  facet normal -0.453991 -0.891006 0
    outer loop
      vertex 4.67747 10.5058 -1
      vertex 5.75 9.95929 1
      vertex 4.67747 10.5058 1
    endloop
  endfacet
  facet normal -0.453991 -0.891006 -0
    outer loop
      vertex 5.75 9.95929 1
      vertex 4.67747 10.5058 -1
      vertex 5.75 9.95929 -1
    endloop
  endfacet
  facet normal -0.544639 -0.83867 0
    outer loop
      vertex 5.75 9.95929 -1
      vertex 6.75953 9.30369 1
      vertex 5.75 9.95929 1
    endloop
  endfacet
  facet normal -0.544639 -0.83867 -0
    outer loop
      vertex 6.75953 9.30369 1
      vertex 5.75 9.95929 -1
      vertex 6.75953 9.30369 -1
    endloop
  endfacet
  facet normal 0.891006 -0.453991 0
    outer loop
      vertex -10.5058 4.67747 1
      vertex -9.95929 5.75 -1
      vertex -9.95929 5.75 1
    endloop
  endfacet
  facet normal 0.891006 -0.453991 0
    outer loop
      vertex -9.95929 5.75 -1
      vertex -10.5058 4.67747 1
      vertex -10.5058 4.67747 -1
    endloop
  endfacet
  facet normal 0.156434 -0.987688 0
    outer loop
      vertex -2.39098 11.2487 -1
      vertex -1.20208 11.437 1
      vertex -2.39098 11.2487 1
    endloop
  endfacet
  facet normal 0.156434 -0.987688 0
    outer loop
      vertex -1.20208 11.437 1
      vertex -2.39098 11.2487 -1
      vertex -1.20208 11.437 -1
    endloop
  endfacet
  facet normal -0.965926 0.25882 0
    outer loop
      vertex 10.9371 -3.55369 -1
      vertex 11.2487 -2.39098 1
      vertex 11.2487 -2.39098 -1
    endloop
  endfacet
  facet normal -0.965926 0.25882 0
    outer loop
      vertex 11.2487 -2.39098 1
      vertex 10.9371 -3.55369 -1
      vertex 10.9371 -3.55369 1
    endloop
  endfacet
  facet normal -0.965926 -0.25882 0
    outer loop
      vertex 11.2487 2.39098 -1
      vertex 10.9371 3.55369 1
      vertex 10.9371 3.55369 -1
    endloop
  endfacet
  facet normal -0.965926 -0.25882 0
    outer loop
      vertex 10.9371 3.55369 1
      vertex 11.2487 2.39098 -1
      vertex 11.2487 2.39098 1
    endloop
  endfacet
  facet normal -0.838671 -0.544639 0
    outer loop
      vertex 9.95929 5.75 -1
      vertex 9.30369 6.75953 1
      vertex 9.30369 6.75953 -1
    endloop
  endfacet
  facet normal -0.838671 -0.544639 0
    outer loop
      vertex 9.30369 6.75953 1
      vertex 9.95929 5.75 -1
      vertex 9.95929 5.75 1
    endloop
  endfacet
  facet normal -0.777146 -0.62932 0
    outer loop
      vertex 9.30369 6.75953 -1
      vertex 8.54617 7.695 1
      vertex 8.54617 7.695 -1
    endloop
  endfacet
  facet normal -0.777146 -0.62932 0
    outer loop
      vertex 8.54617 7.695 1
      vertex 9.30369 6.75953 -1
      vertex 9.30369 6.75953 1
    endloop
  endfacet
  facet normal -0.891006 -0.453991 0
    outer loop
      vertex 10.5058 4.67747 -1
      vertex 9.95929 5.75 1
      vertex 9.95929 5.75 -1
    endloop
  endfacet
  facet normal -0.891006 -0.453991 0
    outer loop
      vertex 9.95929 5.75 1
      vertex 10.5058 4.67747 -1
      vertex 10.5058 4.67747 1
    endloop
  endfacet
  facet normal -0.25882 -0.965926 0
    outer loop
      vertex 2.39098 11.2487 -1
      vertex 3.55369 10.9371 1
      vertex 2.39098 11.2487 1
    endloop
  endfacet
  facet normal -0.25882 -0.965926 -0
    outer loop
      vertex 3.55369 10.9371 1
      vertex 2.39098 11.2487 -1
      vertex 3.55369 10.9371 -1
    endloop
  endfacet
  facet normal -0.358367 -0.933581 0
    outer loop
      vertex 3.55369 10.9371 -1
      vertex 4.67747 10.5058 1
      vertex 3.55369 10.9371 1
    endloop
  endfacet
  facet normal -0.358367 -0.933581 -0
    outer loop
      vertex 4.67747 10.5058 1
      vertex 3.55369 10.9371 -1
      vertex 4.67747 10.5058 -1
    endloop
  endfacet
  facet normal -0.156434 -0.987688 0
    outer loop
      vertex 1.20208 11.437 -1
      vertex 2.39098 11.2487 1
      vertex 1.20208 11.437 1
    endloop
  endfacet
  facet normal -0.156434 -0.987688 -0
    outer loop
      vertex 2.39098 11.2487 1
      vertex 1.20208 11.437 -1
      vertex 2.39098 11.2487 -1
    endloop
  endfacet
  facet normal -0.62932 -0.777146 0
    outer loop
      vertex 6.75953 9.30369 -1
      vertex 7.695 8.54617 1
      vertex 6.75953 9.30369 1
    endloop
  endfacet
  facet normal -0.62932 -0.777146 -0
    outer loop
      vertex 7.695 8.54617 1
      vertex 6.75953 9.30369 -1
      vertex 7.695 8.54617 -1
    endloop
  endfacet
  facet normal 0.965926 -0.25882 0
    outer loop
      vertex -11.2487 2.39098 1
      vertex -10.9371 3.55369 -1
      vertex -10.9371 3.55369 1
    endloop
  endfacet
  facet normal 0.965926 -0.25882 0
    outer loop
      vertex -10.9371 3.55369 -1
      vertex -11.2487 2.39098 1
      vertex -11.2487 2.39098 -1
    endloop
  endfacet
  facet normal 0.777146 -0.62932 0
    outer loop
      vertex -9.30369 6.75953 1
      vertex -8.54617 7.695 -1
      vertex -8.54617 7.695 1
    endloop
  endfacet
  facet normal 0.777146 -0.62932 0
    outer loop
      vertex -8.54617 7.695 -1
      vertex -9.30369 6.75953 1
      vertex -9.30369 6.75953 -1
    endloop
  endfacet
  facet normal 0.707107 -0.707107 0
    outer loop
      vertex -8.54617 7.695 1
      vertex -7.695 8.54617 -1
      vertex -7.695 8.54617 1
    endloop
  endfacet
  facet normal 0.707107 -0.707107 0
    outer loop
      vertex -7.695 8.54617 -1
      vertex -8.54617 7.695 1
      vertex -8.54617 7.695 -1
    endloop
  endfacet
  facet normal 0.838671 -0.544639 0
    outer loop
      vertex -9.95929 5.75 1
      vertex -9.30369 6.75953 -1
      vertex -9.30369 6.75953 1
    endloop
  endfacet
  facet normal 0.838671 -0.544639 0
    outer loop
      vertex -9.30369 6.75953 -1
      vertex -9.95929 5.75 1
      vertex -9.95929 5.75 -1
    endloop
  endfacet
  facet normal 0.933581 -0.358367 0
    outer loop
      vertex -10.9371 3.55369 1
      vertex -10.5058 4.67747 -1
      vertex -10.5058 4.67747 1
    endloop
  endfacet
  facet normal 0.933581 -0.358367 0
    outer loop
      vertex -10.5058 4.67747 -1
      vertex -10.9371 3.55369 1
      vertex -10.9371 3.55369 -1
    endloop
  endfacet
  facet normal 0.987688 -0.156434 0
    outer loop
      vertex -11.437 1.20208 1
      vertex -11.2487 2.39098 -1
      vertex -11.2487 2.39098 1
    endloop
  endfacet
  facet normal 0.987688 -0.156434 0
    outer loop
      vertex -11.2487 2.39098 -1
      vertex -11.437 1.20208 1
      vertex -11.437 1.20208 -1
    endloop
  endfacet
  facet normal 0.453991 -0.891006 0
    outer loop
      vertex -5.75 9.95929 -1
      vertex -4.67747 10.5058 1
      vertex -5.75 9.95929 1
    endloop
  endfacet
  facet normal 0.453991 -0.891006 0
    outer loop
      vertex -4.67747 10.5058 1
      vertex -5.75 9.95929 -1
      vertex -4.67747 10.5058 -1
    endloop
  endfacet
  facet normal 0.544639 -0.838671 0
    outer loop
      vertex -6.75953 9.30369 -1
      vertex -5.75 9.95929 1
      vertex -6.75953 9.30369 1
    endloop
  endfacet
  facet normal 0.544639 -0.838671 0
    outer loop
      vertex -5.75 9.95929 1
      vertex -6.75953 9.30369 -1
      vertex -5.75 9.95929 -1
    endloop
  endfacet
  facet normal 0.25882 -0.965926 0
    outer loop
      vertex -3.55369 10.9371 -1
      vertex -2.39098 11.2487 1
      vertex -3.55369 10.9371 1
    endloop
  endfacet
  facet normal 0.25882 -0.965926 0
    outer loop
      vertex -2.39098 11.2487 1
      vertex -3.55369 10.9371 -1
      vertex -2.39098 11.2487 -1
    endloop
  endfacet
  facet normal 0.0523364 -0.99863 0
    outer loop
      vertex -1.20208 11.437 -1
      vertex 0 11.5 1
      vertex -1.20208 11.437 1
    endloop
  endfacet
  facet normal 0.0523364 -0.99863 0
    outer loop
      vertex 0 11.5 1
      vertex -1.20208 11.437 -1
      vertex 0 11.5 -1
    endloop
  endfacet
  facet normal -0.0523364 0.99863 0
    outer loop
      vertex 1.20208 -11.437 -1
      vertex 0 -11.5 1
      vertex 1.20208 -11.437 1
    endloop
  endfacet
  facet normal -0.0523364 0.99863 0
    outer loop
      vertex 0 -11.5 1
      vertex 1.20208 -11.437 -1
      vertex 0 -11.5 -1
    endloop
  endfacet
  facet normal -0.25882 0.965926 0
    outer loop
      vertex 3.55369 -10.9371 -1
      vertex 2.39098 -11.2487 1
      vertex 3.55369 -10.9371 1
    endloop
  endfacet
  facet normal -0.25882 0.965926 0
    outer loop
      vertex 2.39098 -11.2487 1
      vertex 3.55369 -10.9371 -1
      vertex 2.39098 -11.2487 -1
    endloop
  endfacet
  facet normal -0.62932 0.777146 0
    outer loop
      vertex 7.695 -8.54617 -1
      vertex 6.75953 -9.30369 1
      vertex 7.695 -8.54617 1
    endloop
  endfacet
  facet normal -0.62932 0.777146 0
    outer loop
      vertex 6.75953 -9.30369 1
      vertex 7.695 -8.54617 -1
      vertex 6.75953 -9.30369 -1
    endloop
  endfacet
  facet normal -0.453991 0.891006 0
    outer loop
      vertex 5.75 -9.95929 -1
      vertex 4.67747 -10.5058 1
      vertex 5.75 -9.95929 1
    endloop
  endfacet
  facet normal -0.453991 0.891006 0
    outer loop
      vertex 4.67747 -10.5058 1
      vertex 5.75 -9.95929 -1
      vertex 4.67747 -10.5058 -1
    endloop
  endfacet
  facet normal -0.777146 0.62932 0
    outer loop
      vertex 8.54617 -7.695 -1
      vertex 9.30369 -6.75953 1
      vertex 9.30369 -6.75953 -1
    endloop
  endfacet
  facet normal -0.777146 0.62932 0
    outer loop
      vertex 9.30369 -6.75953 1
      vertex 8.54617 -7.695 -1
      vertex 8.54617 -7.695 1
    endloop
  endfacet
  facet normal -0.891006 0.453991 0
    outer loop
      vertex 9.95929 -5.75 -1
      vertex 10.5058 -4.67747 1
      vertex 10.5058 -4.67747 -1
    endloop
  endfacet
  facet normal -0.891006 0.453991 0
    outer loop
      vertex 10.5058 -4.67747 1
      vertex 9.95929 -5.75 -1
      vertex 9.95929 -5.75 1
    endloop
  endfacet
  facet normal 0.707107 0.707107 0
    outer loop
      vertex -7.695 -8.54617 1
      vertex -8.54617 -7.695 -1
      vertex -8.54617 -7.695 1
    endloop
  endfacet
  facet normal 0.707107 0.707107 0
    outer loop
      vertex -8.54617 -7.695 -1
      vertex -7.695 -8.54617 1
      vertex -7.695 -8.54617 -1
    endloop
  endfacet
  facet normal 0.544639 0.83867 -0
    outer loop
      vertex -5.75 -9.95929 -1
      vertex -6.75953 -9.30369 1
      vertex -5.75 -9.95929 1
    endloop
  endfacet
  facet normal 0.544639 0.83867 0
    outer loop
      vertex -6.75953 -9.30369 1
      vertex -5.75 -9.95929 -1
      vertex -6.75953 -9.30369 -1
    endloop
  endfacet
  facet normal 0.358367 0.933581 -0
    outer loop
      vertex -3.55369 -10.9371 -1
      vertex -4.67747 -10.5058 1
      vertex -3.55369 -10.9371 1
    endloop
  endfacet
  facet normal 0.358367 0.933581 0
    outer loop
      vertex -4.67747 -10.5058 1
      vertex -3.55369 -10.9371 -1
      vertex -4.67747 -10.5058 -1
    endloop
  endfacet
  facet normal 0.156434 0.987688 -0
    outer loop
      vertex -1.20208 -11.437 -1
      vertex -2.39098 -11.2487 1
      vertex -1.20208 -11.437 1
    endloop
  endfacet
  facet normal 0.156434 0.987688 0
    outer loop
      vertex -2.39098 -11.2487 1
      vertex -1.20208 -11.437 -1
      vertex -2.39098 -11.2487 -1
    endloop
  endfacet
  facet normal 0.891006 0.453991 0
    outer loop
      vertex -9.95929 -5.75 1
      vertex -10.5058 -4.67747 -1
      vertex -10.5058 -4.67747 1
    endloop
  endfacet
  facet normal 0.891006 0.453991 0
    outer loop
      vertex -10.5058 -4.67747 -1
      vertex -9.95929 -5.75 1
      vertex -9.95929 -5.75 -1
    endloop
  endfacet
  facet normal 0.777146 0.62932 0
    outer loop
      vertex -8.54617 -7.695 1
      vertex -9.30369 -6.75953 -1
      vertex -9.30369 -6.75953 1
    endloop
  endfacet
  facet normal 0.777146 0.62932 0
    outer loop
      vertex -9.30369 -6.75953 -1
      vertex -8.54617 -7.695 1
      vertex -8.54617 -7.695 -1
    endloop
  endfacet
  facet normal 0.965926 0.25882 0
    outer loop
      vertex -10.9371 -3.55369 1
      vertex -11.2487 -2.39098 -1
      vertex -11.2487 -2.39098 1
    endloop
  endfacet
  facet normal 0.965926 0.25882 0
    outer loop
      vertex -11.2487 -2.39098 -1
      vertex -10.9371 -3.55369 1
      vertex -10.9371 -3.55369 -1
    endloop
  endfacet
  facet normal 0.99863 0.0523364 0
    outer loop
      vertex -11.437 -1.20208 1
      vertex -11.5 0 -1
      vertex -11.5 0 1
    endloop
  endfacet
  facet normal 0.99863 0.0523364 0
    outer loop
      vertex -11.5 0 -1
      vertex -11.437 -1.20208 1
      vertex -11.437 -1.20208 -1
    endloop
  endfacet
  facet normal -0.156434 0.987688 0
    outer loop
      vertex 2.39098 -11.2487 -1
      vertex 1.20208 -11.437 1
      vertex 2.39098 -11.2487 1
    endloop
  endfacet
  facet normal -0.156434 0.987688 0
    outer loop
      vertex 1.20208 -11.437 1
      vertex 2.39098 -11.2487 -1
      vertex 1.20208 -11.437 -1
    endloop
  endfacet
  facet normal -0.358367 0.933581 0
    outer loop
      vertex 4.67747 -10.5058 -1
      vertex 3.55369 -10.9371 1
      vertex 4.67747 -10.5058 1
    endloop
  endfacet
  facet normal -0.358367 0.933581 0
    outer loop
      vertex 3.55369 -10.9371 1
      vertex 4.67747 -10.5058 -1
      vertex 3.55369 -10.9371 -1
    endloop
  endfacet
  facet normal -0.707107 0.707107 0
    outer loop
      vertex 7.695 -8.54617 -1
      vertex 8.54617 -7.695 1
      vertex 8.54617 -7.695 -1
    endloop
  endfacet
  facet normal -0.707107 0.707107 0
    outer loop
      vertex 8.54617 -7.695 1
      vertex 7.695 -8.54617 -1
      vertex 7.695 -8.54617 1
    endloop
  endfacet
  facet normal -0.544639 0.83867 0
    outer loop
      vertex 6.75953 -9.30369 -1
      vertex 5.75 -9.95929 1
      vertex 6.75953 -9.30369 1
    endloop
  endfacet
  facet normal -0.544639 0.83867 0
    outer loop
      vertex 5.75 -9.95929 1
      vertex 6.75953 -9.30369 -1
      vertex 5.75 -9.95929 -1
    endloop
  endfacet
  facet normal -0.838671 0.544639 0
    outer loop
      vertex 9.30369 -6.75953 -1
      vertex 9.95929 -5.75 1
      vertex 9.95929 -5.75 -1
    endloop
  endfacet
  facet normal -0.838671 0.544639 0
    outer loop
      vertex 9.95929 -5.75 1
      vertex 9.30369 -6.75953 -1
      vertex 9.30369 -6.75953 1
    endloop
  endfacet
  facet normal -0.933581 0.358367 0
    outer loop
      vertex 10.5058 -4.67747 -1
      vertex 10.9371 -3.55369 1
      vertex 10.9371 -3.55369 -1
    endloop
  endfacet
  facet normal -0.933581 0.358367 0
    outer loop
      vertex 10.9371 -3.55369 1
      vertex 10.5058 -4.67747 -1
      vertex 10.5058 -4.67747 1
    endloop
  endfacet
  facet normal -0.987688 0.156434 0
    outer loop
      vertex 11.2487 -2.39098 -1
      vertex 11.437 -1.20208 1
      vertex 11.437 -1.20208 -1
    endloop
  endfacet
  facet normal -0.987688 0.156434 0
    outer loop
      vertex 11.437 -1.20208 1
      vertex 11.2487 -2.39098 -1
      vertex 11.2487 -2.39098 1
    endloop
  endfacet
  facet normal 0.62932 0.777146 -0
    outer loop
      vertex -6.75953 -9.30369 -1
      vertex -7.695 -8.54617 1
      vertex -6.75953 -9.30369 1
    endloop
  endfacet
  facet normal 0.62932 0.777146 0
    outer loop
      vertex -7.695 -8.54617 1
      vertex -6.75953 -9.30369 -1
      vertex -7.695 -8.54617 -1
    endloop
  endfacet
  facet normal 0.453991 0.891006 -0
    outer loop
      vertex -4.67747 -10.5058 -1
      vertex -5.75 -9.95929 1
      vertex -4.67747 -10.5058 1
    endloop
  endfacet
  facet normal 0.453991 0.891006 0
    outer loop
      vertex -5.75 -9.95929 1
      vertex -4.67747 -10.5058 -1
      vertex -5.75 -9.95929 -1
    endloop
  endfacet
  facet normal 0.25882 0.965926 -0
    outer loop
      vertex -2.39098 -11.2487 -1
      vertex -3.55369 -10.9371 1
      vertex -2.39098 -11.2487 1
    endloop
  endfacet
  facet normal 0.25882 0.965926 0
    outer loop
      vertex -3.55369 -10.9371 1
      vertex -2.39098 -11.2487 -1
      vertex -3.55369 -10.9371 -1
    endloop
  endfacet
  facet normal 0.0523364 0.99863 -0
    outer loop
      vertex 0 -11.5 -1
      vertex -1.20208 -11.437 1
      vertex 0 -11.5 1
    endloop
  endfacet
  facet normal 0.0523364 0.99863 0
    outer loop
      vertex -1.20208 -11.437 1
      vertex 0 -11.5 -1
      vertex -1.20208 -11.437 -1
    endloop
  endfacet
  facet normal 0.838671 0.544639 0
    outer loop
      vertex -9.30369 -6.75953 1
      vertex -9.95929 -5.75 -1
      vertex -9.95929 -5.75 1
    endloop
  endfacet
  facet normal 0.838671 0.544639 0
    outer loop
      vertex -9.95929 -5.75 -1
      vertex -9.30369 -6.75953 1
      vertex -9.30369 -6.75953 -1
    endloop
  endfacet
  facet normal 0.933581 0.358367 0
    outer loop
      vertex -10.5058 -4.67747 1
      vertex -10.9371 -3.55369 -1
      vertex -10.9371 -3.55369 1
    endloop
  endfacet
  facet normal 0.933581 0.358367 0
    outer loop
      vertex -10.9371 -3.55369 -1
      vertex -10.5058 -4.67747 1
      vertex -10.5058 -4.67747 -1
    endloop
  endfacet
  facet normal 0.987688 0.156434 0
    outer loop
      vertex -11.2487 -2.39098 1
      vertex -11.437 -1.20208 -1
      vertex -11.437 -1.20208 1
    endloop
  endfacet
  facet normal 0.987688 0.156434 0
    outer loop
      vertex -11.437 -1.20208 -1
      vertex -11.2487 -2.39098 1
      vertex -11.2487 -2.39098 -1
    endloop
  endfacet
  facet normal -0.99863 0.0523364 0
    outer loop
      vertex 11.437 -1.20208 -1
      vertex 11.5 0 1
      vertex 11.5 0 -1
    endloop
  endfacet
  facet normal -0.99863 0.0523364 0
    outer loop
      vertex 11.5 0 1
      vertex 11.437 -1.20208 -1
      vertex 11.437 -1.20208 1
    endloop
  endfacet
  facet normal -0.987688 -0.156436 0
    outer loop
      vertex 17 15.5 -1
      vertex 16.9266 15.9635 1
      vertex 16.9266 15.9635 -1
    endloop
  endfacet
  facet normal -0.987688 -0.156436 0
    outer loop
      vertex 16.9266 15.9635 1
      vertex 17 15.5 -1
      vertex 17 15.5 1
    endloop
  endfacet
  facet normal 0.987688 0.156433 0
    outer loop
      vertex 14.0734 15.0365 1
      vertex 14 15.5 -1
      vertex 14 15.5 1
    endloop
  endfacet
  facet normal 0.987688 0.156433 0
    outer loop
      vertex 14 15.5 -1
      vertex 14.0734 15.0365 1
      vertex 14.0734 15.0365 -1
    endloop
  endfacet
  facet normal 0.156435 -0.987688 0
    outer loop
      vertex 15.0365 16.9266 -1
      vertex 15.5 17 1
      vertex 15.0365 16.9266 1
    endloop
  endfacet
  facet normal 0.156435 -0.987688 0
    outer loop
      vertex 15.5 17 1
      vertex 15.0365 16.9266 -1
      vertex 15.5 17 -1
    endloop
  endfacet
  facet normal -0.156434 0.987688 0
    outer loop
      vertex 15.9635 14.0734 -1
      vertex 15.5 14 1
      vertex 15.9635 14.0734 1
    endloop
  endfacet
  facet normal -0.156434 0.987688 0
    outer loop
      vertex 15.5 14 1
      vertex 15.9635 14.0734 -1
      vertex 15.5 14 -1
    endloop
  endfacet
  facet normal -0.707107 -0.707107 0
    outer loop
      vertex 16.7135 16.3817 -1
      vertex 16.3817 16.7135 1
      vertex 16.3817 16.7135 -1
    endloop
  endfacet
  facet normal -0.707107 -0.707107 0
    outer loop
      vertex 16.3817 16.7135 1
      vertex 16.7135 16.3817 -1
      vertex 16.7135 16.3817 1
    endloop
  endfacet
  facet normal -0.891006 -0.453992 0
    outer loop
      vertex 16.9266 15.9635 -1
      vertex 16.7135 16.3817 1
      vertex 16.7135 16.3817 -1
    endloop
  endfacet
  facet normal -0.891006 -0.453992 0
    outer loop
      vertex 16.7135 16.3817 1
      vertex 16.9266 15.9635 -1
      vertex 16.9266 15.9635 1
    endloop
  endfacet
  facet normal 0.707106 -0.707108 0
    outer loop
      vertex 14.2865 16.3817 -1
      vertex 14.6183 16.7135 1
      vertex 14.2865 16.3817 1
    endloop
  endfacet
  facet normal 0.707106 -0.707108 0
    outer loop
      vertex 14.6183 16.7135 1
      vertex 14.2865 16.3817 -1
      vertex 14.6183 16.7135 -1
    endloop
  endfacet
  facet normal 0.891007 -0.45399 0
    outer loop
      vertex 14.0734 15.9635 1
      vertex 14.2865 16.3817 -1
      vertex 14.2865 16.3817 1
    endloop
  endfacet
  facet normal 0.891007 -0.45399 0
    outer loop
      vertex 14.2865 16.3817 -1
      vertex 14.0734 15.9635 1
      vertex 14.0734 15.9635 -1
    endloop
  endfacet
  facet normal 0.453992 -0.891006 0
    outer loop
      vertex 14.6183 16.7135 -1
      vertex 15.0365 16.9266 1
      vertex 14.6183 16.7135 1
    endloop
  endfacet
  facet normal 0.453992 -0.891006 0
    outer loop
      vertex 15.0365 16.9266 1
      vertex 14.6183 16.7135 -1
      vertex 15.0365 16.9266 -1
    endloop
  endfacet
  facet normal -0.45399 0.891007 0
    outer loop
      vertex 16.3817 14.2865 -1
      vertex 15.9635 14.0734 1
      vertex 16.3817 14.2865 1
    endloop
  endfacet
  facet normal -0.45399 0.891007 0
    outer loop
      vertex 15.9635 14.0734 1
      vertex 16.3817 14.2865 -1
      vertex 15.9635 14.0734 -1
    endloop
  endfacet
  facet normal -0.891006 0.453992 0
    outer loop
      vertex 16.7135 14.6183 -1
      vertex 16.9266 15.0365 1
      vertex 16.9266 15.0365 -1
    endloop
  endfacet
  facet normal -0.891006 0.453992 0
    outer loop
      vertex 16.9266 15.0365 1
      vertex 16.7135 14.6183 -1
      vertex 16.7135 14.6183 1
    endloop
  endfacet
  facet normal 0.45399 0.891007 -0
    outer loop
      vertex 15.0365 14.0734 -1
      vertex 14.6183 14.2865 1
      vertex 15.0365 14.0734 1
    endloop
  endfacet
  facet normal 0.45399 0.891007 0
    outer loop
      vertex 14.6183 14.2865 1
      vertex 15.0365 14.0734 -1
      vertex 14.6183 14.2865 -1
    endloop
  endfacet
  facet normal 0.891007 0.45399 0
    outer loop
      vertex 14.2865 14.6183 1
      vertex 14.0734 15.0365 -1
      vertex 14.0734 15.0365 1
    endloop
  endfacet
  facet normal 0.891007 0.45399 0
    outer loop
      vertex 14.0734 15.0365 -1
      vertex 14.2865 14.6183 1
      vertex 14.2865 14.6183 -1
    endloop
  endfacet
  facet normal -0.156436 -0.987688 0
    outer loop
      vertex 15.5 17 -1
      vertex 15.9635 16.9266 1
      vertex 15.5 17 1
    endloop
  endfacet
  facet normal -0.156436 -0.987688 -0
    outer loop
      vertex 15.9635 16.9266 1
      vertex 15.5 17 -1
      vertex 15.9635 16.9266 -1
    endloop
  endfacet
  facet normal -0.453992 -0.891006 0
    outer loop
      vertex 15.9635 16.9266 -1
      vertex 16.3817 16.7135 1
      vertex 15.9635 16.9266 1
    endloop
  endfacet
  facet normal -0.453992 -0.891006 -0
    outer loop
      vertex 16.3817 16.7135 1
      vertex 15.9635 16.9266 -1
      vertex 16.3817 16.7135 -1
    endloop
  endfacet
  facet normal 0.987688 -0.156434 0
    outer loop
      vertex 14 15.5 1
      vertex 14.0734 15.9635 -1
      vertex 14.0734 15.9635 1
    endloop
  endfacet
  facet normal 0.987688 -0.156434 0
    outer loop
      vertex 14.0734 15.9635 -1
      vertex 14 15.5 1
      vertex 14 15.5 -1
    endloop
  endfacet
  facet normal -0.987688 0.156435 0
    outer loop
      vertex 16.9266 15.0365 -1
      vertex 17 15.5 1
      vertex 17 15.5 -1
    endloop
  endfacet
  facet normal -0.987688 0.156435 0
    outer loop
      vertex 17 15.5 1
      vertex 16.9266 15.0365 -1
      vertex 16.9266 15.0365 1
    endloop
  endfacet
  facet normal -0.707108 0.707106 0
    outer loop
      vertex 16.3817 14.2865 -1
      vertex 16.7135 14.6183 1
      vertex 16.7135 14.6183 -1
    endloop
  endfacet
  facet normal -0.707108 0.707106 0
    outer loop
      vertex 16.7135 14.6183 1
      vertex 16.3817 14.2865 -1
      vertex 16.3817 14.2865 1
    endloop
  endfacet
  facet normal 0.156433 0.987688 -0
    outer loop
      vertex 15.5 14 -1
      vertex 15.0365 14.0734 1
      vertex 15.5 14 1
    endloop
  endfacet
  facet normal 0.156433 0.987688 0
    outer loop
      vertex 15.0365 14.0734 1
      vertex 15.5 14 -1
      vertex 15.0365 14.0734 -1
    endloop
  endfacet
  facet normal 0.707107 0.707107 0
    outer loop
      vertex 14.6183 14.2865 1
      vertex 14.2865 14.6183 -1
      vertex 14.2865 14.6183 1
    endloop
  endfacet
  facet normal 0.707107 0.707107 0
    outer loop
      vertex 14.2865 14.6183 -1
      vertex 14.6183 14.2865 1
      vertex 14.6183 14.2865 -1
    endloop
  endfacet
  facet normal -0.987688 -0.156435 0
    outer loop
      vertex 17 -15.5 -1
      vertex 16.9266 -15.0365 1
      vertex 16.9266 -15.0365 -1
    endloop
  endfacet
  facet normal -0.987688 -0.156435 0
    outer loop
      vertex 16.9266 -15.0365 1
      vertex 17 -15.5 -1
      vertex 17 -15.5 1
    endloop
  endfacet
  facet normal 0.891007 0.45399 0
    outer loop
      vertex 14.2865 -16.3817 1
      vertex 14.0734 -15.9635 -1
      vertex 14.0734 -15.9635 1
    endloop
  endfacet
  facet normal 0.891007 0.45399 0
    outer loop
      vertex 14.0734 -15.9635 -1
      vertex 14.2865 -16.3817 1
      vertex 14.2865 -16.3817 -1
    endloop
  endfacet
  facet normal -0.707108 -0.707106 0
    outer loop
      vertex 16.7135 -14.6183 -1
      vertex 16.3817 -14.2865 1
      vertex 16.3817 -14.2865 -1
    endloop
  endfacet
  facet normal -0.707108 -0.707106 0
    outer loop
      vertex 16.3817 -14.2865 1
      vertex 16.7135 -14.6183 -1
      vertex 16.7135 -14.6183 1
    endloop
  endfacet
  facet normal -0.891006 -0.453992 0
    outer loop
      vertex 16.9266 -15.0365 -1
      vertex 16.7135 -14.6183 1
      vertex 16.7135 -14.6183 -1
    endloop
  endfacet
  facet normal -0.891006 -0.453992 0
    outer loop
      vertex 16.7135 -14.6183 1
      vertex 16.9266 -15.0365 -1
      vertex 16.9266 -15.0365 1
    endloop
  endfacet
  facet normal 0.45399 -0.891007 0
    outer loop
      vertex 14.6183 -14.2865 -1
      vertex 15.0365 -14.0734 1
      vertex 14.6183 -14.2865 1
    endloop
  endfacet
  facet normal 0.45399 -0.891007 0
    outer loop
      vertex 15.0365 -14.0734 1
      vertex 14.6183 -14.2865 -1
      vertex 15.0365 -14.0734 -1
    endloop
  endfacet
  facet normal 0.707107 -0.707107 0
    outer loop
      vertex 14.2865 -14.6183 1
      vertex 14.6183 -14.2865 -1
      vertex 14.6183 -14.2865 1
    endloop
  endfacet
  facet normal 0.707107 -0.707107 0
    outer loop
      vertex 14.6183 -14.2865 -1
      vertex 14.2865 -14.6183 1
      vertex 14.2865 -14.6183 -1
    endloop
  endfacet
  facet normal 0.156433 -0.987688 0
    outer loop
      vertex 15.0365 -14.0734 -1
      vertex 15.5 -14 1
      vertex 15.0365 -14.0734 1
    endloop
  endfacet
  facet normal 0.156433 -0.987688 0
    outer loop
      vertex 15.5 -14 1
      vertex 15.0365 -14.0734 -1
      vertex 15.5 -14 -1
    endloop
  endfacet
  facet normal -0.45399 -0.891007 0
    outer loop
      vertex 15.9635 -14.0734 -1
      vertex 16.3817 -14.2865 1
      vertex 15.9635 -14.0734 1
    endloop
  endfacet
  facet normal -0.45399 -0.891007 -0
    outer loop
      vertex 16.3817 -14.2865 1
      vertex 15.9635 -14.0734 -1
      vertex 16.3817 -14.2865 -1
    endloop
  endfacet
  facet normal 0.987688 0.156434 0
    outer loop
      vertex 14.0734 -15.9635 1
      vertex 14 -15.5 -1
      vertex 14 -15.5 1
    endloop
  endfacet
  facet normal 0.987688 0.156434 0
    outer loop
      vertex 14 -15.5 -1
      vertex 14.0734 -15.9635 1
      vertex 14.0734 -15.9635 -1
    endloop
  endfacet
  facet normal 0.891007 -0.45399 0
    outer loop
      vertex 14.0734 -15.0365 1
      vertex 14.2865 -14.6183 -1
      vertex 14.2865 -14.6183 1
    endloop
  endfacet
  facet normal 0.891007 -0.45399 0
    outer loop
      vertex 14.2865 -14.6183 -1
      vertex 14.0734 -15.0365 1
      vertex 14.0734 -15.0365 -1
    endloop
  endfacet
  facet normal -0.891006 0.453992 0
    outer loop
      vertex 16.7135 -16.3817 -1
      vertex 16.9266 -15.9635 1
      vertex 16.9266 -15.9635 -1
    endloop
  endfacet
  facet normal -0.891006 0.453992 0
    outer loop
      vertex 16.9266 -15.9635 1
      vertex 16.7135 -16.3817 -1
      vertex 16.7135 -16.3817 1
    endloop
  endfacet
  facet normal 0.707106 0.707108 -0
    outer loop
      vertex 14.6183 -16.7135 -1
      vertex 14.2865 -16.3817 1
      vertex 14.6183 -16.7135 1
    endloop
  endfacet
  facet normal 0.707106 0.707108 0
    outer loop
      vertex 14.2865 -16.3817 1
      vertex 14.6183 -16.7135 -1
      vertex 14.2865 -16.3817 -1
    endloop
  endfacet
  facet normal -0.453992 0.891006 0
    outer loop
      vertex 16.3817 -16.7135 -1
      vertex 15.9635 -16.9266 1
      vertex 16.3817 -16.7135 1
    endloop
  endfacet
  facet normal -0.453992 0.891006 0
    outer loop
      vertex 15.9635 -16.9266 1
      vertex 16.3817 -16.7135 -1
      vertex 15.9635 -16.9266 -1
    endloop
  endfacet
  facet normal -0.707107 0.707107 0
    outer loop
      vertex 16.3817 -16.7135 -1
      vertex 16.7135 -16.3817 1
      vertex 16.7135 -16.3817 -1
    endloop
  endfacet
  facet normal -0.707107 0.707107 0
    outer loop
      vertex 16.7135 -16.3817 1
      vertex 16.3817 -16.7135 -1
      vertex 16.3817 -16.7135 1
    endloop
  endfacet
  facet normal -0.987688 0.156436 0
    outer loop
      vertex 16.9266 -15.9635 -1
      vertex 17 -15.5 1
      vertex 17 -15.5 -1
    endloop
  endfacet
  facet normal -0.987688 0.156436 0
    outer loop
      vertex 17 -15.5 1
      vertex 16.9266 -15.9635 -1
      vertex 16.9266 -15.9635 1
    endloop
  endfacet
  facet normal -0.156434 -0.987688 0
    outer loop
      vertex 15.5 -14 -1
      vertex 15.9635 -14.0734 1
      vertex 15.5 -14 1
    endloop
  endfacet
  facet normal -0.156434 -0.987688 -0
    outer loop
      vertex 15.9635 -14.0734 1
      vertex 15.5 -14 -1
      vertex 15.9635 -14.0734 -1
    endloop
  endfacet
  facet normal 0.987688 -0.156433 0
    outer loop
      vertex 14 -15.5 1
      vertex 14.0734 -15.0365 -1
      vertex 14.0734 -15.0365 1
    endloop
  endfacet
  facet normal 0.987688 -0.156433 0
    outer loop
      vertex 14.0734 -15.0365 -1
      vertex 14 -15.5 1
      vertex 14 -15.5 -1
    endloop
  endfacet
  facet normal -0.156436 0.987688 0
    outer loop
      vertex 15.9635 -16.9266 -1
      vertex 15.5 -17 1
      vertex 15.9635 -16.9266 1
    endloop
  endfacet
  facet normal -0.156436 0.987688 0
    outer loop
      vertex 15.5 -17 1
      vertex 15.9635 -16.9266 -1
      vertex 15.5 -17 -1
    endloop
  endfacet
  facet normal 0.156435 0.987688 -0
    outer loop
      vertex 15.5 -17 -1
      vertex 15.0365 -16.9266 1
      vertex 15.5 -17 1
    endloop
  endfacet
  facet normal 0.156435 0.987688 0
    outer loop
      vertex 15.0365 -16.9266 1
      vertex 15.5 -17 -1
      vertex 15.0365 -16.9266 -1
    endloop
  endfacet
  facet normal 0.453992 0.891006 -0
    outer loop
      vertex 15.0365 -16.9266 -1
      vertex 14.6183 -16.7135 1
      vertex 15.0365 -16.9266 1
    endloop
  endfacet
  facet normal 0.453992 0.891006 0
    outer loop
      vertex 14.6183 -16.7135 1
      vertex 15.0365 -16.9266 -1
      vertex 14.6183 -16.7135 -1
    endloop
  endfacet
  facet normal -0.156435 -0.987688 0
    outer loop
      vertex -15.5 17 -1
      vertex -15.0365 16.9266 1
      vertex -15.5 17 1
    endloop
  endfacet
  facet normal -0.156435 -0.987688 -0
    outer loop
      vertex -15.0365 16.9266 1
      vertex -15.5 17 -1
      vertex -15.0365 16.9266 -1
    endloop
  endfacet
  facet normal -0.987688 0.156433 0
    outer loop
      vertex -14.0734 15.0365 -1
      vertex -14 15.5 1
      vertex -14 15.5 -1
    endloop
  endfacet
  facet normal -0.987688 0.156433 0
    outer loop
      vertex -14 15.5 1
      vertex -14.0734 15.0365 -1
      vertex -14.0734 15.0365 1
    endloop
  endfacet
  facet normal -0.707106 -0.707108 0
    outer loop
      vertex -14.6183 16.7135 -1
      vertex -14.2865 16.3817 1
      vertex -14.6183 16.7135 1
    endloop
  endfacet
  facet normal -0.707106 -0.707108 -0
    outer loop
      vertex -14.2865 16.3817 1
      vertex -14.6183 16.7135 -1
      vertex -14.2865 16.3817 -1
    endloop
  endfacet
  facet normal -0.891007 -0.45399 0
    outer loop
      vertex -14.0734 15.9635 -1
      vertex -14.2865 16.3817 1
      vertex -14.2865 16.3817 -1
    endloop
  endfacet
  facet normal -0.891007 -0.45399 0
    outer loop
      vertex -14.2865 16.3817 1
      vertex -14.0734 15.9635 -1
      vertex -14.0734 15.9635 1
    endloop
  endfacet
  facet normal 0.156436 -0.987688 0
    outer loop
      vertex -15.9635 16.9266 -1
      vertex -15.5 17 1
      vertex -15.9635 16.9266 1
    endloop
  endfacet
  facet normal 0.156436 -0.987688 0
    outer loop
      vertex -15.5 17 1
      vertex -15.9635 16.9266 -1
      vertex -15.5 17 -1
    endloop
  endfacet
  facet normal 0.707107 -0.707107 0
    outer loop
      vertex -16.7135 16.3817 1
      vertex -16.3817 16.7135 -1
      vertex -16.3817 16.7135 1
    endloop
  endfacet
  facet normal 0.707107 -0.707107 0
    outer loop
      vertex -16.3817 16.7135 -1
      vertex -16.7135 16.3817 1
      vertex -16.7135 16.3817 -1
    endloop
  endfacet
  facet normal 0.453992 -0.891006 0
    outer loop
      vertex -16.3817 16.7135 -1
      vertex -15.9635 16.9266 1
      vertex -16.3817 16.7135 1
    endloop
  endfacet
  facet normal 0.453992 -0.891006 0
    outer loop
      vertex -15.9635 16.9266 1
      vertex -16.3817 16.7135 -1
      vertex -15.9635 16.9266 -1
    endloop
  endfacet
  facet normal -0.453992 -0.891006 0
    outer loop
      vertex -15.0365 16.9266 -1
      vertex -14.6183 16.7135 1
      vertex -15.0365 16.9266 1
    endloop
  endfacet
  facet normal -0.453992 -0.891006 -0
    outer loop
      vertex -14.6183 16.7135 1
      vertex -15.0365 16.9266 -1
      vertex -14.6183 16.7135 -1
    endloop
  endfacet
  facet normal 0.987688 -0.156436 0
    outer loop
      vertex -17 15.5 1
      vertex -16.9266 15.9635 -1
      vertex -16.9266 15.9635 1
    endloop
  endfacet
  facet normal 0.987688 -0.156436 0
    outer loop
      vertex -16.9266 15.9635 -1
      vertex -17 15.5 1
      vertex -17 15.5 -1
    endloop
  endfacet
  facet normal -0.987688 -0.156434 0
    outer loop
      vertex -14 15.5 -1
      vertex -14.0734 15.9635 1
      vertex -14.0734 15.9635 -1
    endloop
  endfacet
  facet normal -0.987688 -0.156434 0
    outer loop
      vertex -14.0734 15.9635 1
      vertex -14 15.5 -1
      vertex -14 15.5 1
    endloop
  endfacet
  facet normal 0.987688 0.156435 0
    outer loop
      vertex -16.9266 15.0365 1
      vertex -17 15.5 -1
      vertex -17 15.5 1
    endloop
  endfacet
  facet normal 0.987688 0.156435 0
    outer loop
      vertex -17 15.5 -1
      vertex -16.9266 15.0365 1
      vertex -16.9266 15.0365 -1
    endloop
  endfacet
  facet normal -0.45399 0.891007 0
    outer loop
      vertex -14.6183 14.2865 -1
      vertex -15.0365 14.0734 1
      vertex -14.6183 14.2865 1
    endloop
  endfacet
  facet normal -0.45399 0.891007 0
    outer loop
      vertex -15.0365 14.0734 1
      vertex -14.6183 14.2865 -1
      vertex -15.0365 14.0734 -1
    endloop
  endfacet
  facet normal -0.707107 0.707107 0
    outer loop
      vertex -14.6183 14.2865 -1
      vertex -14.2865 14.6183 1
      vertex -14.2865 14.6183 -1
    endloop
  endfacet
  facet normal -0.707107 0.707107 0
    outer loop
      vertex -14.2865 14.6183 1
      vertex -14.6183 14.2865 -1
      vertex -14.6183 14.2865 1
    endloop
  endfacet
  facet normal 0.891006 -0.453992 0
    outer loop
      vertex -16.9266 15.9635 1
      vertex -16.7135 16.3817 -1
      vertex -16.7135 16.3817 1
    endloop
  endfacet
  facet normal 0.891006 -0.453992 0
    outer loop
      vertex -16.7135 16.3817 -1
      vertex -16.9266 15.9635 1
      vertex -16.9266 15.9635 -1
    endloop
  endfacet
  facet normal 0.707108 0.707106 0
    outer loop
      vertex -16.3817 14.2865 1
      vertex -16.7135 14.6183 -1
      vertex -16.7135 14.6183 1
    endloop
  endfacet
  facet normal 0.707108 0.707106 0
    outer loop
      vertex -16.7135 14.6183 -1
      vertex -16.3817 14.2865 1
      vertex -16.3817 14.2865 -1
    endloop
  endfacet
  facet normal -0.891007 0.45399 0
    outer loop
      vertex -14.2865 14.6183 -1
      vertex -14.0734 15.0365 1
      vertex -14.0734 15.0365 -1
    endloop
  endfacet
  facet normal -0.891007 0.45399 0
    outer loop
      vertex -14.0734 15.0365 1
      vertex -14.2865 14.6183 -1
      vertex -14.2865 14.6183 1
    endloop
  endfacet
  facet normal 0.891006 0.453992 0
    outer loop
      vertex -16.7135 14.6183 1
      vertex -16.9266 15.0365 -1
      vertex -16.9266 15.0365 1
    endloop
  endfacet
  facet normal 0.891006 0.453992 0
    outer loop
      vertex -16.9266 15.0365 -1
      vertex -16.7135 14.6183 1
      vertex -16.7135 14.6183 -1
    endloop
  endfacet
  facet normal 0.156434 0.987688 -0
    outer loop
      vertex -15.5 14 -1
      vertex -15.9635 14.0734 1
      vertex -15.5 14 1
    endloop
  endfacet
  facet normal 0.156434 0.987688 0
    outer loop
      vertex -15.9635 14.0734 1
      vertex -15.5 14 -1
      vertex -15.9635 14.0734 -1
    endloop
  endfacet
  facet normal -0.156433 0.987688 0
    outer loop
      vertex -15.0365 14.0734 -1
      vertex -15.5 14 1
      vertex -15.0365 14.0734 1
    endloop
  endfacet
  facet normal -0.156433 0.987688 0
    outer loop
      vertex -15.5 14 1
      vertex -15.0365 14.0734 -1
      vertex -15.5 14 -1
    endloop
  endfacet
  facet normal 0.45399 0.891007 -0
    outer loop
      vertex -15.9635 14.0734 -1
      vertex -16.3817 14.2865 1
      vertex -15.9635 14.0734 1
    endloop
  endfacet
  facet normal 0.45399 0.891007 0
    outer loop
      vertex -16.3817 14.2865 1
      vertex -15.9635 14.0734 -1
      vertex -16.3817 14.2865 -1
    endloop
  endfacet
  facet normal -0.987688 -0.156433 0
    outer loop
      vertex -14 -15.5 -1
      vertex -14.0734 -15.0365 1
      vertex -14.0734 -15.0365 -1
    endloop
  endfacet
  facet normal -0.987688 -0.156433 0
    outer loop
      vertex -14.0734 -15.0365 1
      vertex -14 -15.5 -1
      vertex -14 -15.5 1
    endloop
  endfacet
  facet normal 0.987688 -0.156435 0
    outer loop
      vertex -17 -15.5 1
      vertex -16.9266 -15.0365 -1
      vertex -16.9266 -15.0365 1
    endloop
  endfacet
  facet normal 0.987688 -0.156435 0
    outer loop
      vertex -16.9266 -15.0365 -1
      vertex -17 -15.5 1
      vertex -17 -15.5 -1
    endloop
  endfacet
  facet normal 0.156434 -0.987688 0
    outer loop
      vertex -15.9635 -14.0734 -1
      vertex -15.5 -14 1
      vertex -15.9635 -14.0734 1
    endloop
  endfacet
  facet normal 0.156434 -0.987688 0
    outer loop
      vertex -15.5 -14 1
      vertex -15.9635 -14.0734 -1
      vertex -15.5 -14 -1
    endloop
  endfacet
  facet normal 0.156436 0.987688 -0
    outer loop
      vertex -15.5 -17 -1
      vertex -15.9635 -16.9266 1
      vertex -15.5 -17 1
    endloop
  endfacet
  facet normal 0.156436 0.987688 0
    outer loop
      vertex -15.9635 -16.9266 1
      vertex -15.5 -17 -1
      vertex -15.9635 -16.9266 -1
    endloop
  endfacet
  facet normal -0.707107 -0.707107 0
    outer loop
      vertex -14.2865 -14.6183 -1
      vertex -14.6183 -14.2865 1
      vertex -14.6183 -14.2865 -1
    endloop
  endfacet
  facet normal -0.707107 -0.707107 0
    outer loop
      vertex -14.6183 -14.2865 1
      vertex -14.2865 -14.6183 -1
      vertex -14.2865 -14.6183 1
    endloop
  endfacet
  facet normal -0.891007 -0.45399 0
    outer loop
      vertex -14.0734 -15.0365 -1
      vertex -14.2865 -14.6183 1
      vertex -14.2865 -14.6183 -1
    endloop
  endfacet
  facet normal -0.891007 -0.45399 0
    outer loop
      vertex -14.2865 -14.6183 1
      vertex -14.0734 -15.0365 -1
      vertex -14.0734 -15.0365 1
    endloop
  endfacet
  facet normal -0.45399 -0.891007 0
    outer loop
      vertex -15.0365 -14.0734 -1
      vertex -14.6183 -14.2865 1
      vertex -15.0365 -14.0734 1
    endloop
  endfacet
  facet normal -0.45399 -0.891007 -0
    outer loop
      vertex -14.6183 -14.2865 1
      vertex -15.0365 -14.0734 -1
      vertex -14.6183 -14.2865 -1
    endloop
  endfacet
  facet normal 0.707108 -0.707106 0
    outer loop
      vertex -16.7135 -14.6183 1
      vertex -16.3817 -14.2865 -1
      vertex -16.3817 -14.2865 1
    endloop
  endfacet
  facet normal 0.707108 -0.707106 0
    outer loop
      vertex -16.3817 -14.2865 -1
      vertex -16.7135 -14.6183 1
      vertex -16.7135 -14.6183 -1
    endloop
  endfacet
  facet normal 0.891006 -0.453992 0
    outer loop
      vertex -16.9266 -15.0365 1
      vertex -16.7135 -14.6183 -1
      vertex -16.7135 -14.6183 1
    endloop
  endfacet
  facet normal 0.891006 -0.453992 0
    outer loop
      vertex -16.7135 -14.6183 -1
      vertex -16.9266 -15.0365 1
      vertex -16.9266 -15.0365 -1
    endloop
  endfacet
  facet normal 0.45399 -0.891007 0
    outer loop
      vertex -16.3817 -14.2865 -1
      vertex -15.9635 -14.0734 1
      vertex -16.3817 -14.2865 1
    endloop
  endfacet
  facet normal 0.45399 -0.891007 0
    outer loop
      vertex -15.9635 -14.0734 1
      vertex -16.3817 -14.2865 -1
      vertex -15.9635 -14.0734 -1
    endloop
  endfacet
  facet normal -0.891007 0.45399 0
    outer loop
      vertex -14.2865 -16.3817 -1
      vertex -14.0734 -15.9635 1
      vertex -14.0734 -15.9635 -1
    endloop
  endfacet
  facet normal -0.891007 0.45399 0
    outer loop
      vertex -14.0734 -15.9635 1
      vertex -14.2865 -16.3817 -1
      vertex -14.2865 -16.3817 1
    endloop
  endfacet
  facet normal 0.707107 0.707107 0
    outer loop
      vertex -16.3817 -16.7135 1
      vertex -16.7135 -16.3817 -1
      vertex -16.7135 -16.3817 1
    endloop
  endfacet
  facet normal 0.707107 0.707107 0
    outer loop
      vertex -16.7135 -16.3817 -1
      vertex -16.3817 -16.7135 1
      vertex -16.3817 -16.7135 -1
    endloop
  endfacet
  facet normal 0.987688 0.156436 0
    outer loop
      vertex -16.9266 -15.9635 1
      vertex -17 -15.5 -1
      vertex -17 -15.5 1
    endloop
  endfacet
  facet normal 0.987688 0.156436 0
    outer loop
      vertex -17 -15.5 -1
      vertex -16.9266 -15.9635 1
      vertex -16.9266 -15.9635 -1
    endloop
  endfacet
  facet normal -0.156433 -0.987688 0
    outer loop
      vertex -15.5 -14 -1
      vertex -15.0365 -14.0734 1
      vertex -15.5 -14 1
    endloop
  endfacet
  facet normal -0.156433 -0.987688 -0
    outer loop
      vertex -15.0365 -14.0734 1
      vertex -15.5 -14 -1
      vertex -15.0365 -14.0734 -1
    endloop
  endfacet
  facet normal -0.987688 0.156434 0
    outer loop
      vertex -14.0734 -15.9635 -1
      vertex -14 -15.5 1
      vertex -14 -15.5 -1
    endloop
  endfacet
  facet normal -0.987688 0.156434 0
    outer loop
      vertex -14 -15.5 1
      vertex -14.0734 -15.9635 -1
      vertex -14.0734 -15.9635 1
    endloop
  endfacet
  facet normal -0.156435 0.987688 0
    outer loop
      vertex -15.0365 -16.9266 -1
      vertex -15.5 -17 1
      vertex -15.0365 -16.9266 1
    endloop
  endfacet
  facet normal -0.156435 0.987688 0
    outer loop
      vertex -15.5 -17 1
      vertex -15.0365 -16.9266 -1
      vertex -15.5 -17 -1
    endloop
  endfacet
  facet normal -0.707106 0.707108 0
    outer loop
      vertex -14.2865 -16.3817 -1
      vertex -14.6183 -16.7135 1
      vertex -14.2865 -16.3817 1
    endloop
  endfacet
  facet normal -0.707106 0.707108 0
    outer loop
      vertex -14.6183 -16.7135 1
      vertex -14.2865 -16.3817 -1
      vertex -14.6183 -16.7135 -1
    endloop
  endfacet
  facet normal 0.453992 0.891006 -0
    outer loop
      vertex -15.9635 -16.9266 -1
      vertex -16.3817 -16.7135 1
      vertex -15.9635 -16.9266 1
    endloop
  endfacet
  facet normal 0.453992 0.891006 0
    outer loop
      vertex -16.3817 -16.7135 1
      vertex -15.9635 -16.9266 -1
      vertex -16.3817 -16.7135 -1
    endloop
  endfacet
  facet normal 0.891006 0.453992 0
    outer loop
      vertex -16.7135 -16.3817 1
      vertex -16.9266 -15.9635 -1
      vertex -16.9266 -15.9635 1
    endloop
  endfacet
  facet normal 0.891006 0.453992 0
    outer loop
      vertex -16.9266 -15.9635 -1
      vertex -16.7135 -16.3817 1
      vertex -16.7135 -16.3817 -1
    endloop
  endfacet
  facet normal -0.453992 0.891006 0
    outer loop
      vertex -14.6183 -16.7135 -1
      vertex -15.0365 -16.9266 1
      vertex -14.6183 -16.7135 1
    endloop
  endfacet
  facet normal -0.453992 0.891006 0
    outer loop
      vertex -15.0365 -16.9266 1
      vertex -14.6183 -16.7135 -1
      vertex -15.0365 -16.9266 -1
    endloop
  endfacet
endsolid OpenSCAD_Model
